<svg width="612" height="543" viewBox="0 0 612 543" fill="none" xmlns="http://www.w3.org/2000/svg">
<path d="M394.666 1.99992C342 11.9999 284.4 54.6666 234.533 120.667C218 142.533 193.333 180.667 193.333 184.4C193.333 184.8 197.2 182.8 201.867 179.867C209.333 175.2 211.867 172.533 220.533 159.6C235.467 137.333 251.733 117.467 271.2 97.4666C290.533 77.7333 302.8 67.4666 320.666 55.5999C367.733 24.5333 410 17.3332 444.666 34.5332C469.466 46.7999 488.533 72.5333 496.666 104.267C500.933 121.2 503.2 146.533 502 163.867L501.066 177.733L509.066 170.933C516.4 164.533 517.066 163.6 517.733 157.067C519.333 144 518.666 111.6 516.666 98.6666C509.733 56.3999 489.066 24.9333 457.6 9.33326C453.466 7.33326 446.4 4.6666 442 3.4666C430.666 0.2666 407.066 -0.400074 394.666 1.99992ZM230.8 14.6666C228 25.7333 226.8 27.0666 217.333 29.4666C212.533 30.7999 209.6 31.9999 210.667 32.3999C211.733 32.7999 215.467 33.8666 218.933 34.6666C226.667 36.6666 227.6 37.7333 230.533 47.5999L232.933 55.3332L234.533 47.7332C235.467 43.4666 237.067 39.0666 238.133 37.9999C240.133 35.9999 248.266 33.3333 252.4 33.3333C253.6 33.3333 254.667 32.6666 254.667 31.9999C254.667 31.1999 253.733 30.6666 252.533 30.6666C247.6 30.6666 239.6 27.3332 237.733 24.3999C236.666 22.7999 234.933 18.5332 234 15.0666L232.4 8.66659L230.8 14.6666Z" fill="currentColor"/>
<path d="M543.333 34.7999C530.666 36.3999 511.6 40.1332 510.266 41.1999C509.733 41.7332 510.533 44.6666 512 47.5999L514.666 53.0665L535.066 52.3999C553.466 51.7332 556.533 51.8665 564.933 54.3999C572.266 56.6665 575.333 58.3999 579.2 62.6666C581.733 65.5999 584.266 69.5999 584.8 71.5999C585.2 73.7332 585.733 76.1332 586.133 76.9332C587.2 80.7999 583.466 94.6666 578.533 104.933C575.6 111.067 568.666 122.133 563.066 129.6C552.933 143.067 518.4 178.933 501.333 193.733L492.666 201.333H502.4C512 201.333 512.266 201.2 518.4 195.733C521.866 192.667 535.466 179.333 548.666 166.133C588.666 126 608.933 95.1999 611.466 70.9332C614.4 42.5332 589.2 29.0666 543.333 34.7999ZM372 44.1332C359.866 47.1999 345.467 53.9999 333.333 61.9999C319.6 71.0666 319.733 72.6666 333.466 66.1332C351.6 57.4666 363.2 54.5332 382 53.7332C395.733 53.0665 399.467 53.4666 408.533 55.8666C418.933 58.6666 419.2 58.6666 424.533 56.2666C427.6 54.9332 431.466 53.1999 433.333 52.3999C436.666 50.9332 436.667 50.9332 430.533 48.1332C414.267 40.7999 390.8 39.1999 372 44.1332ZM432 65.1999C404 76.2665 389.333 82.7999 359.333 97.8665C334.267 110.533 286.4 137.467 287.333 138.4C287.6 138.667 294.533 135.333 302.933 130.933C335.867 113.333 398.666 86.7999 439.066 73.3332C450.533 69.4666 460 65.9999 460 65.4666C460 64.3999 452.8 57.3332 451.867 57.4666C451.6 57.4666 442.666 60.9332 432 65.1999ZM162.667 98.3999C162.667 99.8665 161.467 105.067 159.867 110C157.333 118.267 156.8 119.067 151.467 121.333C148.4 122.8 143.333 124.267 140.267 124.8C134.8 125.6 131.067 128 135.067 128C136.133 128 141.067 129.2 145.867 130.8C156.267 133.867 159.067 137.333 161.6 149.6C163.2 157.067 165.333 160 165.333 154.8C165.333 149.333 170.8 134.667 173.467 133.333C174.933 132.533 180.4 130.8 185.6 129.467C190.8 128.133 194.533 126.8 193.867 126.4C193.2 126 189.333 124.933 185.333 124C171.6 120.8 168.4 117.333 166 103.067C165.067 97.0665 162.667 93.8665 162.667 98.3999ZM302.4 214.667C282.667 217.467 268.8 226.4 262.533 240.4C258.133 250 258 270.933 262.133 280.133C266.4 289.2 272.667 295.6 281.867 299.866C291.867 304.666 300.4 306.266 326 308C347.733 309.6 354 311.466 356.933 317.333C359.467 322.4 359.067 329.866 355.867 333.733C351.2 339.866 345.733 340.4 301.6 339.466L261.2 338.666L261.6 354.4L262 370L275.333 370.8C297.067 372.266 348.4 372.133 356 370.666C372.133 367.6 384.267 359.2 390.267 346.933C393.733 340 394 338.133 394 324C394 309.866 393.733 308 390.267 300.933C383.067 286.4 369.2 279.6 342 277.2C301.733 273.733 298.667 272.933 295.867 265.6C294 260.533 295.467 254.266 299.467 250.533L302.933 247.333L344.133 246.933L385.333 246.533V214.667H375.066C369.333 214.667 352.667 214.4 338 214C323.333 213.733 307.333 214 302.4 214.667ZM125.333 292.666V370.666H162.667L162.4 292.933L162 215.333L143.733 214.933L125.333 214.533V292.666ZM195.2 215.867C194.933 216.133 194.667 251.2 194.667 293.6V370.666H232V216.133L213.867 215.733C203.867 215.466 195.467 215.6 195.2 215.867ZM469.466 218.933C468.8 220.667 458.933 243.333 447.333 269.333C435.733 295.333 421.067 328.8 414.533 343.6L402.8 370.666H442L466.533 312C480.133 279.733 491.6 253.733 492.133 254.267C493.066 255.333 514.666 307.333 514.666 308.533C514.666 308.933 506.4 309.467 496.4 309.6L478.133 310L471.867 324.666L465.466 339.333L497.066 340L528.533 340.666L534.666 355.6L540.666 370.666H560.533C578.8 370.666 580.266 370.533 579.6 368.266C578.8 365.6 515.733 223.067 513.466 218.8C512 216.133 510.933 216 491.2 216C471.067 216 470.533 216.133 469.466 218.933ZM418.4 260.4C404.8 270.8 393.067 279.733 392.533 280.4C391.333 281.466 397.067 288 399.2 288C400 288 408.4 282.4 417.867 275.6L435.2 263.2L440.133 252.267C442.933 246.267 444.8 241.333 444.266 241.467C443.733 241.467 432.133 250.133 418.4 260.4Z" fill="currentColor"/>
<path d="M95.5999 277.6C4.13327 360.133 -24.6668 424 22.3999 439.466C34.6666 443.6 66.2666 442.933 88.5332 438.266C120.4 431.467 173.067 412 216.667 390.666L230 384.267L217.733 384.133C205.467 384 205.333 384 184.4 392.8C156.533 404.533 124.667 414.933 103.333 419.466C83.5999 423.6 57.1999 424.533 46.6666 421.466C17.0666 413.066 18.5332 384.933 51.0666 342.133C63.7332 325.6 88.1332 298.666 101.733 286.4C111.6 277.467 112 276.933 112 271.2C112 268 111.333 265.333 110.667 265.333C109.867 265.333 103.2 270.933 95.5999 277.6ZM422.4 393.733C400.666 427.066 362.933 465.733 331.6 486.666C251.733 540.133 178 521.733 154.667 442.666C153.067 437.2 151.6 432.533 151.333 432.267C151.067 432 146.933 433.2 142.133 434.933C131.733 438.533 131.867 438 136.533 456.4C147.6 500 170 527.333 204 538.666C214.933 542.4 240.667 543.733 254 541.466C304.933 532.533 360.8 492.266 412 427.333C420 417.066 436.533 393.2 439.866 386.933C441.333 384.133 441.2 384 435.066 384H428.666L422.4 393.733Z" fill="currentColor"/>
<path d="M171.6 423.6C165.733 426 165.733 426.133 172.133 442.666C182.667 470.133 203.733 490.266 230 498.133C235.866 499.866 242.266 500.533 253.333 500.533C271.333 500.4 283.333 497.6 300.666 489.466C311.066 484.666 331.066 471.866 332.8 469.066C333.2 468.4 328.933 470.133 323.066 473.066C302.8 483.2 282.266 488.4 262.666 488.4C241.733 488.4 224.8 482.533 208.933 470C197.2 460.666 188.933 448.666 178.533 425.733L176.667 421.6L171.6 423.6ZM432 467.066C432 468 431.066 472 430 475.733C427.733 483.466 424.4 485.866 414.8 487.466C409.333 488.4 407.2 490.666 411.733 490.666C413.066 490.666 417.066 491.6 420.533 492.8C427.333 495.2 429.466 498.133 431.333 508.266C432.533 514.8 433.866 513.866 435.866 504.933C437.866 496.133 439.733 494.267 450 491.2L458 488.933L449.733 486.666C445.2 485.466 440.533 483.733 439.6 482.8C438.533 482 436.666 477.733 435.466 473.333C433.333 465.733 432 463.333 432 467.066Z" fill="currentColor"/>
</svg>
