<svg version="1.1" id="Layer_1" xmlns="http://www.w3.org/2000/svg" xmlns:xlink="http://www.w3.org/1999/xlink" x="0px" y="0px"
	 width="100%" viewBox="0 0 1893 1920" enable-background="new 0 0 1893 1920" xml:space="preserve">
<path fill="currentColor" opacity="1.000000" stroke="none" 
	d="
M964.000000,1921.000000 
	C951.312439,1921.000000 938.624878,1921.000000 925.288086,1920.599365 
	C916.096985,1920.121582 907.555054,1920.044434 898.741272,1919.640625 
	C889.083313,1918.663696 879.674438,1918.242798 870.316223,1917.312256 
	C854.276184,1915.717407 838.177551,1914.379395 822.267517,1911.887329 
	C799.141296,1908.264648 776.111694,1903.964478 753.128601,1899.501465 
	C714.302856,1891.961670 676.363159,1881.124634 639.052429,1868.029663 
	C604.010925,1855.730957 569.950623,1841.078491 536.599365,1824.822632 
	C519.514709,1816.495361 502.671875,1807.593262 486.181702,1798.144531 
	C466.022308,1786.593506 445.989777,1774.744141 426.546906,1762.037598 
	C397.542725,1743.082642 369.536255,1722.664673 343.303558,1699.964844 
	C324.915527,1684.053101 306.443359,1668.195312 288.810608,1651.468140 
	C274.492950,1637.885986 261.232971,1623.172485 247.759140,1608.722656 
	C238.066498,1598.327759 228.250931,1587.970215 219.450516,1576.836914 
	C202.489044,1555.379150 185.497314,1533.882446 169.793945,1511.506348 
	C138.692001,1467.188599 111.485687,1420.499390 89.166321,1371.114990 
	C77.766319,1345.891113 66.442886,1320.572144 56.626808,1294.710815 
	C47.713108,1271.226807 39.861965,1247.223022 33.406860,1222.952515 
	C25.577168,1193.513794 19.471228,1163.604370 13.090880,1133.797729 
	C10.252149,1120.536377 8.281343,1107.066895 6.444619,1093.619873 
	C4.861174,1082.026978 4.063238,1070.327759 2.792758,1058.689331 
	C2.689019,1057.739014 1.620317,1056.893921 0.999997,1056.000000 
	C1.000000,994.312439 1.000000,932.624878 1.428663,870.540344 
	C2.183801,869.630432 2.755903,869.137634 2.799877,868.601501 
	C3.460420,860.547913 3.773300,852.455811 4.720294,844.437927 
	C6.372987,830.445129 7.867351,816.398010 10.414399,802.555237 
	C13.676065,784.828491 17.384901,767.146179 21.849819,749.687317 
	C29.312725,720.505676 37.080460,691.384521 45.598347,662.496948 
	C50.468082,645.981628 56.658791,629.813904 63.002563,613.785645 
	C71.069733,593.403076 79.351868,573.069397 88.547546,553.179871 
	C97.425911,533.976685 107.019966,515.050781 117.323776,496.574219 
	C129.692734,474.394562 142.509506,452.408722 156.280380,431.080170 
	C175.946564,400.620941 197.137527,371.188507 220.876312,343.697601 
	C235.129120,327.192047 249.041397,310.357788 263.955597,294.468048 
	C277.940338,279.568542 292.707886,265.354614 307.744568,251.505157 
	C323.639832,236.864899 339.766602,222.389618 356.686859,208.970276 
	C378.233063,191.882141 400.357452,175.473740 422.817322,159.599594 
	C449.774506,140.546799 478.355682,124.064705 507.455536,108.459335 
	C535.716309,93.303947 564.544739,79.315407 594.456909,67.856346 
	C622.198303,57.228893 650.287598,47.385975 678.630005,38.492474 
	C699.069031,32.078957 720.093140,27.432396 741.006958,22.657782 
	C760.151917,18.287006 779.458130,14.581650 798.770203,10.997240 
	C813.592468,8.246136 828.537598,6.159276 843.421265,3.735185 
	C848.624634,2.887731 853.807678,1.915347 859.000000,1.000005 
	C906.020874,1.000000 953.041809,1.000000 1000.779663,1.351750 
	C1010.992432,1.815598 1020.488159,1.927697 1030.239746,2.383583 
	C1036.606201,3.067359 1042.739990,3.178460 1048.822510,3.793939 
	C1062.404785,5.168285 1076.051758,6.245248 1089.505127,8.459928 
	C1105.478149,11.089369 1121.393433,14.300972 1137.123291,18.125536 
	C1165.762695,25.088903 1194.414917,32.105125 1222.738525,40.226795 
	C1242.387451,45.861042 1261.796143,52.632450 1280.772949,60.240860 
	C1308.564331,71.383377 1336.249512,82.939766 1363.267700,95.814529 
	C1384.723633,106.038765 1405.310181,118.159828 1425.927734,130.053864 
	C1458.295410,148.726212 1489.252441,169.594055 1518.233154,193.198151 
	C1541.747192,212.349960 1565.234375,231.611435 1587.634888,252.029602 
	C1605.392090,268.215454 1621.769043,285.961060 1638.224121,303.515381 
	C1651.074463,317.224304 1663.628174,331.283051 1675.368408,345.943298 
	C1690.801270,365.214264 1705.803955,384.874847 1720.097656,405.002686 
	C1743.041382,437.311188 1763.551270,471.228058 1781.359985,506.602448 
	C1796.140991,535.962769 1810.269287,565.740784 1822.841919,596.097839 
	C1834.394653,623.991882 1844.206543,652.674805 1853.412598,681.449402 
	C1859.791382,701.387085 1864.320923,721.965332 1868.795044,742.449890 
	C1873.265259,762.917175 1876.894531,783.580627 1880.401611,804.241394 
	C1882.711304,817.847839 1884.330322,831.581055 1885.929688,845.295837 
	C1887.377319,857.708862 1888.499512,870.163818 1889.546143,882.618652 
	C1890.844116,898.063843 1891.901611,913.529053 1893.112915,928.981750 
	C1893.218994,930.336060 1893.695435,931.661255 1894.000000,933.000000 
	C1894.000000,952.020874 1894.000000,971.041809 1893.568115,990.476807 
	C1892.493652,998.176758 1891.714111,1005.453613 1891.237793,1012.750305 
	C1890.300171,1027.113159 1890.030762,1041.538086 1888.568481,1055.843628 
	C1886.634888,1074.758789 1884.340332,1093.669434 1881.255127,1112.426270 
	C1877.430176,1135.680908 1873.218018,1158.905151 1868.122437,1181.909668 
	C1860.983521,1214.138306 1851.672241,1245.822998 1839.888306,1276.670044 
	C1830.373047,1301.578003 1820.717163,1326.497437 1809.593140,1350.708618 
	C1796.599365,1378.989258 1783.077759,1407.152710 1767.679321,1434.166626 
	C1753.272705,1459.440674 1736.338623,1483.296509 1720.106323,1507.501099 
	C1699.991943,1537.494629 1677.494873,1565.722168 1653.435913,1592.593140 
	C1636.184570,1611.860840 1617.830811,1630.169434 1599.486938,1648.421753 
	C1585.374023,1662.464233 1570.769897,1676.043335 1555.903076,1689.288452 
	C1542.871460,1700.898560 1529.666138,1712.427002 1515.654419,1722.798218 
	C1492.128296,1740.211670 1468.243774,1757.194214 1443.858276,1773.375732 
	C1424.921631,1785.941528 1405.376831,1797.720947 1385.397949,1808.550781 
	C1364.076660,1820.108276 1342.244629,1830.857666 1320.054077,1840.641235 
	C1296.759644,1850.911499 1273.105103,1860.590210 1249.006592,1868.752075 
	C1221.229248,1878.160034 1192.938110,1886.164795 1164.594482,1893.748291 
	C1144.980713,1898.995972 1125.001709,1903.072632 1104.998901,1906.616943 
	C1085.458130,1910.079468 1065.721802,1912.571655 1045.993652,1914.802734 
	C1028.775879,1916.749756 1011.449280,1917.731689 994.172974,1919.167114 
	C992.425232,1919.312256 990.692993,1919.644897 988.488464,1919.921143 
	C982.615906,1919.980835 977.205566,1919.914062 971.802307,1920.080322 
	C969.194580,1920.160645 966.600342,1920.679565 964.000000,1921.000000 
M682.014221,1238.575928 
	C682.291443,1238.733032 682.568604,1238.890137 683.054871,1239.627197 
	C683.697754,1240.087280 684.340637,1240.547363 685.438293,1241.534912 
	C687.762695,1242.953369 690.087097,1244.371826 692.693787,1246.198120 
	C693.195190,1246.617920 693.696594,1247.037720 694.486267,1248.059937 
	C695.625977,1249.082153 696.765686,1250.104492 697.936096,1251.033691 
	C697.936096,1251.033691 697.848206,1251.076904 698.001221,1251.865356 
	C698.140137,1252.920288 698.279114,1253.975342 698.246765,1255.786133 
	C696.681213,1256.965088 695.153259,1259.045776 693.541504,1259.112915 
	C691.096436,1259.214844 688.593018,1257.917603 685.682861,1256.914429 
	C685.161255,1256.850830 684.639709,1256.787109 683.725647,1256.117188 
	C680.740540,1254.852905 677.755432,1253.588623 674.296387,1251.966553 
	C663.873291,1246.259399 653.485474,1240.486694 643.019470,1234.859253 
	C623.629395,1224.433350 605.785034,1211.714478 589.737549,1196.773438 
	C572.907837,1181.104248 556.703735,1164.730347 543.926453,1145.343384 
	C541.318848,1141.386841 537.728821,1138.077759 534.463745,1134.323120 
	C531.089111,1139.567505 533.027527,1143.489380 535.426575,1146.805176 
	C541.598755,1155.336426 547.617798,1164.087280 554.709045,1171.823608 
	C573.881348,1192.740112 595.602295,1210.768311 619.202148,1226.546753 
	C638.263489,1239.290771 657.838562,1251.109863 679.235901,1261.079346 
	C681.131592,1261.794312 683.027344,1262.509277 685.183167,1263.784912 
	C685.775940,1263.943726 686.368652,1264.102661 687.359741,1264.827271 
	C690.207336,1265.988037 693.054932,1267.148682 696.248779,1268.811890 
	C697.169128,1269.170654 698.089417,1269.529297 699.441162,1270.126953 
	C699.441162,1270.126953 699.926514,1270.214355 700.197876,1270.805786 
	C701.047974,1270.906982 701.898132,1271.008179 703.095764,1271.755371 
	C730.133972,1283.292969 758.087219,1292.095459 786.395020,1299.900024 
	C817.558044,1308.491699 849.363220,1313.226562 881.490906,1315.885986 
	C898.266418,1317.274536 915.102539,1318.328491 931.927063,1318.618896 
	C949.695801,1318.925171 967.500183,1318.520386 985.257568,1317.724487 
	C1001.200256,1317.010132 1017.221802,1316.178711 1032.988892,1313.887573 
	C1053.231079,1310.946045 1073.493408,1307.443726 1093.308105,1302.443726 
	C1116.205078,1296.665771 1138.705933,1289.249146 1161.211426,1282.022705 
	C1170.377441,1279.079346 1179.103027,1274.764160 1188.837158,1271.108154 
	C1191.889160,1269.730225 1194.941040,1268.352295 1198.715088,1266.960571 
	C1201.050659,1265.716187 1203.386230,1264.471802 1206.407715,1263.097046 
	C1218.888550,1256.709717 1231.541260,1250.634033 1243.811890,1243.865356 
	C1264.455444,1232.478027 1283.928223,1219.173828 1301.808472,1203.877686 
	C1314.856567,1192.715454 1327.040894,1180.428101 1338.701294,1167.802734 
	C1345.684326,1160.241943 1350.953979,1151.090332 1356.916626,1142.599609 
	C1358.988892,1139.648804 1358.194458,1137.074097 1354.982544,1134.415649 
	C1352.749756,1136.772461 1350.353394,1138.857788 1348.491943,1141.343628 
	C1340.517700,1151.992676 1333.383179,1163.356812 1324.651245,1173.329712 
	C1314.216797,1185.247070 1303.174316,1196.853638 1291.080078,1207.032104 
	C1279.556396,1216.730225 1266.644897,1224.909302 1253.792725,1232.866943 
	C1236.979736,1243.277100 1219.770142,1253.099365 1200.194092,1259.434937 
	C1198.802979,1259.525391 1197.411987,1259.615845 1195.385742,1259.235474 
	C1194.648804,1258.974976 1193.911743,1258.714478 1192.792725,1257.887939 
	C1192.577148,1257.450439 1192.239502,1257.032837 1192.164307,1256.572388 
	C1191.312500,1251.353882 1195.330078,1248.987183 1198.686401,1246.985107 
	C1210.296509,1240.060425 1222.086426,1233.420654 1233.981689,1226.993896 
	C1259.274414,1213.328857 1283.044800,1197.574951 1301.697998,1175.385864 
	C1313.974243,1160.782349 1325.627075,1145.608887 1336.769775,1130.122803 
	C1340.766113,1124.568726 1345.592407,1118.512207 1343.835693,1110.392822 
	C1342.941895,1106.261230 1340.572144,1104.907349 1337.431152,1107.678101 
	C1334.458374,1110.300415 1331.840576,1113.342773 1329.193848,1116.313721 
	C1321.712769,1124.711304 1315.009644,1133.961670 1306.694580,1141.420654 
	C1292.968872,1153.733032 1278.498169,1165.268921 1263.836792,1176.471802 
	C1239.990967,1194.692505 1213.667603,1208.911255 1186.185181,1220.654297 
	C1157.160767,1233.056519 1126.855469,1241.960938 1096.034180,1248.737427 
	C1074.591064,1253.452393 1052.954346,1257.361450 1031.300903,1261.018433 
	C1018.214355,1263.228516 1004.934631,1264.306519 991.733459,1265.821045 
	C982.780212,1266.848267 973.812622,1267.750366 964.351074,1268.761841 
	C964.351074,1277.124390 964.351074,1285.197998 964.351074,1292.725464 
	C949.389709,1292.725464 934.964661,1293.083374 920.565674,1292.624756 
	C906.216919,1292.167969 891.831238,1291.449219 877.575745,1289.837524 
	C858.830811,1287.718262 840.098083,1285.161133 821.540649,1281.796509 
	C797.402710,1277.420288 773.369080,1272.390015 749.437134,1266.991577 
	C738.116211,1264.437988 727.135925,1260.374878 715.615723,1256.550171 
	C715.081726,1256.354980 714.547668,1256.159790 713.544006,1255.366577 
	C712.116272,1254.935181 710.688538,1254.503784 708.985107,1253.526245 
	C707.667603,1252.995728 706.350098,1252.465210 704.759521,1251.472900 
	C704.268555,1251.269653 703.777588,1251.066528 703.060425,1250.249878 
	C702.106445,1249.758423 701.152466,1249.266968 700.049927,1248.945557 
	C700.049927,1248.945557 700.229614,1248.808594 700.136597,1248.316650 
	C699.722351,1247.798828 699.308044,1247.281128 698.874329,1246.189819 
	C698.532288,1245.130493 698.190308,1244.071289 697.840088,1242.453369 
	C697.605652,1241.953369 697.371216,1241.453247 697.357605,1240.044434 
	C697.273132,1233.040527 697.188660,1226.036621 697.344971,1218.589844 
	C696.898560,1218.039429 696.452087,1217.489136 695.536621,1216.426025 
	C684.164307,1210.737427 672.359009,1205.762085 661.525818,1199.185547 
	C646.901367,1190.307251 632.687256,1180.652466 618.941040,1170.462036 
	C609.164551,1163.214600 600.167297,1154.831055 591.339294,1146.412354 
	C581.793091,1137.308716 572.854126,1127.568970 563.637451,1118.119141 
	C559.607178,1113.986694 555.545166,1109.885376 551.396057,1105.666748 
	C544.989868,1113.566895 544.507690,1118.083130 550.533142,1126.279175 
	C561.444641,1141.120972 572.763062,1155.678589 584.312622,1170.031982 
	C596.012329,1184.572021 609.790161,1197.075806 625.668091,1206.841431 
	C642.792847,1217.373901 660.504822,1226.951660 678.444946,1237.350098 
	C679.603882,1237.605591 680.762878,1237.861206 681.992004,1238.019043 
	C681.992004,1238.019043 681.894958,1238.090210 682.014221,1238.575928 
M1577.199097,1232.526001 
	C1577.408813,1232.420532 1577.618408,1232.315063 1577.828125,1232.209717 
	C1577.525513,1232.184814 1577.222900,1232.159912 1577.586792,1231.620728 
	C1575.315552,1228.610840 1573.272461,1225.391602 1570.734253,1222.626709 
	C1558.376343,1209.164673 1544.527588,1197.481812 1528.942017,1187.860474 
	C1518.320190,1181.303589 1507.031250,1176.506226 1494.702026,1173.473145 
	C1494.880127,1174.218140 1494.851196,1174.654541 1495.035522,1174.782104 
	C1496.914917,1176.083130 1498.751831,1177.473267 1500.745239,1178.577148 
	C1521.825562,1190.250610 1542.100098,1203.113647 1560.595825,1218.651001 
	C1565.992676,1223.184692 1571.528198,1227.553467 1577.199097,1232.526001 
M1416.971924,1490.966431 
	C1416.971924,1490.966431 1416.902344,1490.869629 1416.280151,1491.134155 
	C1399.867310,1509.433716 1384.001099,1528.165405 1369.776611,1548.194946 
	C1370.125122,1548.491211 1370.473633,1548.787476 1370.822266,1549.083740 
	C1390.200806,1531.714844 1409.579224,1514.345825 1429.000000,1497.000000 
	C1429.000000,1497.000000 1428.976562,1496.957153 1429.632935,1496.714355 
	C1431.747925,1494.788208 1433.862793,1492.861938 1436.637207,1490.831787 
	C1437.732788,1489.808838 1438.828369,1488.786011 1440.515137,1487.650024 
	C1441.406372,1486.912842 1442.297607,1486.175659 1443.699585,1485.220215 
	C1443.790649,1485.059082 1443.881714,1484.897949 1444.493774,1484.566040 
	C1445.205078,1484.029785 1445.916382,1483.493530 1447.210327,1482.697144 
	C1447.802734,1482.087769 1448.395142,1481.478394 1449.627197,1480.840942 
	C1450.752930,1479.876343 1451.878540,1478.911743 1453.694946,1477.931885 
	C1454.436646,1477.263062 1455.103638,1476.479126 1455.931152,1475.942261 
	C1474.446899,1463.934814 1492.499756,1451.111816 1511.640137,1440.196411 
	C1532.388794,1428.363770 1554.314575,1418.581909 1577.662231,1412.836060 
	C1593.227783,1409.005615 1608.946533,1405.560059 1624.779907,1403.142334 
	C1634.749634,1401.619873 1645.056885,1402.143677 1655.214478,1402.089600 
	C1659.983398,1402.064087 1664.000122,1401.114380 1666.947632,1397.095825 
	C1669.829712,1393.166504 1669.229370,1389.390015 1666.604736,1385.690552 
	C1653.373047,1367.040894 1640.490845,1348.126831 1626.732666,1329.873291 
	C1618.892822,1319.471924 1609.903442,1309.878662 1600.897827,1300.430420 
	C1591.894165,1290.984253 1582.251343,1282.144897 1572.835205,1273.095215 
	C1569.134399,1269.538452 1565.465942,1265.912476 1561.478882,1262.694702 
	C1539.026489,1244.574219 1516.443726,1226.554077 1491.253296,1212.323730 
	C1470.724121,1200.726562 1449.757935,1189.895508 1428.867065,1178.950684 
	C1422.848877,1175.797607 1416.537109,1175.783203 1410.657349,1179.838989 
	C1402.670166,1185.348633 1394.660034,1190.826538 1386.757568,1196.455444 
	C1385.837646,1197.110718 1385.116211,1198.605103 1385.023926,1199.767822 
	C1384.553345,1205.699219 1384.310303,1211.648804 1384.005615,1217.593018 
	C1383.683960,1223.870239 1383.692383,1230.182495 1383.012451,1236.420044 
	C1381.123169,1253.754150 1379.771240,1271.205444 1376.682373,1288.335449 
	C1372.883423,1309.402100 1368.337158,1330.411987 1362.591675,1351.022217 
	C1358.684326,1365.038330 1351.915039,1378.234863 1346.873901,1391.962524 
	C1340.678345,1408.833618 1341.140503,1426.483521 1342.439453,1443.983643 
	C1343.802490,1462.348145 1345.921997,1480.667725 1348.177124,1498.949341 
	C1349.160034,1506.917603 1351.305420,1514.742310 1352.922974,1522.632202 
	C1353.596313,1522.851685 1354.269653,1523.071289 1354.942993,1523.290771 
	C1359.888428,1517.439209 1364.841187,1511.593750 1369.777832,1505.734863 
	C1383.284546,1489.705078 1396.304077,1473.230469 1410.437256,1457.773926 
	C1421.966919,1445.164673 1434.594116,1433.520142 1447.162354,1421.910889 
	C1458.202393,1411.713379 1469.433838,1401.640991 1481.291504,1392.428223 
	C1505.759766,1373.417725 1532.294434,1357.712524 1561.147827,1346.260864 
	C1575.073975,1340.733765 1589.343262,1336.071655 1604.700562,1336.619629 
	C1610.960938,1336.843140 1612.619873,1338.064331 1613.957520,1343.924072 
	C1616.264038,1354.027954 1614.359985,1357.775879 1604.131348,1359.839722 
	C1580.406372,1364.627075 1558.775391,1374.317505 1538.016724,1386.425659 
	C1517.461304,1398.415283 1498.106812,1412.139526 1480.132812,1427.628052 
	C1464.938599,1440.721191 1450.596436,1454.817261 1436.128662,1468.730835 
	C1431.655396,1473.032471 1428.006958,1478.192139 1423.347900,1483.178711 
	C1421.974487,1484.645142 1420.601074,1486.111694 1419.033813,1487.700562 
	C1419.033813,1487.700562 1418.991089,1487.925903 1418.369873,1488.140625 
	C1417.868774,1489.063965 1417.367554,1489.987427 1416.971924,1490.966431 
M1556.685181,1166.361572 
	C1553.198120,1165.057739 1549.711182,1163.754028 1545.746582,1161.987061 
	C1544.492188,1161.599243 1543.237915,1161.211548 1541.643066,1160.254761 
	C1540.774414,1160.138794 1539.905884,1160.022827 1538.654175,1159.300903 
	C1537.521851,1158.956665 1536.389648,1158.612427 1534.775635,1157.807251 
	C1507.909546,1148.671143 1480.498779,1142.333252 1452.155273,1140.788330 
	C1452.014526,1141.346191 1451.873779,1141.903931 1451.733032,1142.461792 
	C1474.508911,1149.562988 1497.284790,1156.664185 1520.647461,1164.228882 
	C1523.416016,1165.200684 1526.184570,1166.172485 1529.308472,1167.759399 
	C1531.875854,1168.793823 1534.443115,1169.828247 1537.552856,1171.305298 
	C1537.990479,1171.452759 1538.427979,1171.600220 1539.253174,1172.227661 
	C1541.167480,1173.155151 1543.081787,1174.082642 1545.282104,1175.645386 
	C1550.457275,1179.663452 1555.737183,1183.554443 1560.788208,1187.723022 
	C1577.000732,1201.103394 1590.383301,1217.046753 1602.225708,1234.307495 
	C1615.285400,1253.342285 1627.884888,1272.697998 1641.196899,1291.552490 
	C1651.338135,1305.916382 1662.370728,1319.648071 1672.819214,1333.799561 
	C1677.207764,1339.743408 1681.062012,1346.079224 1685.266602,1352.162842 
	C1686.649658,1354.164062 1689.281372,1356.331909 1690.543335,1353.062134 
	C1692.683228,1347.517822 1694.620117,1341.474121 1694.609497,1335.644043 
	C1694.599731,1330.255371 1692.346191,1324.708008 1690.339722,1319.517090 
	C1684.769287,1305.104614 1678.795288,1290.848389 1673.013062,1276.517456 
	C1663.603760,1253.197388 1648.826172,1233.383667 1631.027832,1216.120972 
	C1619.882812,1205.311157 1607.181274,1195.856445 1594.210449,1187.252563 
	C1582.488525,1179.477173 1569.452148,1173.683350 1556.685181,1166.361572 
M1435.921021,905.082458 
	C1434.718262,909.806641 1433.029663,914.468994 1432.419678,919.268494 
	C1431.338257,927.775391 1431.286255,936.417847 1430.098755,944.904968 
	C1429.061279,952.319824 1430.094238,955.085754 1436.966797,957.874634 
	C1442.907837,960.285583 1449.176270,962.096558 1454.743530,965.177979 
	C1465.321533,971.032532 1475.178223,978.403748 1477.629639,991.032959 
	C1480.158691,1004.062805 1481.440308,1017.377075 1482.557617,1030.626709 
	C1483.652832,1043.612427 1485.461792,1055.934204 1496.836304,1064.543335 
	C1499.849731,1066.824097 1502.349121,1069.812256 1504.956543,1072.595459 
	C1511.312012,1079.379517 1512.627930,1087.856934 1507.688721,1095.260254 
	C1504.800781,1099.588989 1500.830078,1103.238037 1497.112183,1106.958984 
	C1492.971191,1111.103394 1488.564331,1114.982422 1483.441650,1119.751099 
	C1489.771240,1120.627930 1494.380493,1120.981323 1498.862671,1121.932861 
	C1534.815918,1129.564941 1569.094971,1141.428223 1600.688721,1160.737427 
	C1625.358765,1175.815063 1646.955322,1194.275513 1664.974731,1216.737427 
	C1682.781982,1238.935181 1696.165405,1263.756470 1706.141602,1290.429443 
	C1708.064209,1295.569946 1710.737427,1300.429688 1713.606689,1306.581665 
	C1715.104736,1303.987427 1715.992676,1302.819946 1716.505127,1301.505981 
	C1722.668457,1285.707397 1729.219971,1270.042236 1734.809326,1254.041382 
	C1747.812500,1216.816162 1759.300537,1179.134888 1768.350098,1140.709839 
	C1775.251587,1111.405273 1780.472168,1081.853271 1782.820557,1051.862549 
	C1784.074097,1035.852173 1784.715210,1019.744263 1784.613037,1003.686829 
	C1784.333008,959.627075 1783.592651,915.569336 1782.835938,871.514221 
	C1782.697388,863.453308 1782.111816,855.332642 1780.877808,847.372009 
	C1778.244019,830.383362 1775.574829,813.368469 1771.956909,796.571838 
	C1767.094971,774.000671 1762.089355,751.406128 1755.738403,729.224426 
	C1748.592407,704.265564 1740.618896,679.482666 1731.637573,655.127625 
	C1723.102661,631.983398 1713.120972,609.350342 1703.200073,586.745117 
	C1689.421021,555.348694 1672.922852,525.325317 1654.021484,496.759552 
	C1639.761841,475.208618 1624.816406,454.034576 1608.961426,433.637085 
	C1592.477539,412.430847 1575.109619,391.835938 1557.044556,371.958832 
	C1542.875488,356.368530 1527.527222,341.753540 1511.845947,327.658539 
	C1492.688232,310.438812 1473.336426,293.284546 1452.787964,277.801392 
	C1428.254639,259.315582 1403.029541,241.547836 1376.869751,225.478531 
	C1352.429932,210.465775 1326.832153,197.116898 1300.896240,184.824783 
	C1276.688599,173.351791 1251.615479,163.559692 1226.477295,154.229156 
	C1186.486206,139.385559 1145.254517,128.683716 1103.535156,119.839409 
	C1077.133545,114.242371 1050.525757,110.202995 1023.572205,108.633774 
	C1006.560730,107.643372 989.545227,106.678993 972.520325,105.973244 
	C959.422180,105.430275 946.307007,105.097961 933.198486,105.066589 
	C922.756287,105.041595 912.306335,105.474976 901.871643,105.960098 
	C892.639526,106.389336 883.375671,106.774033 874.210999,107.882278 
	C857.122986,109.948662 840.009827,112.031456 823.065857,115.010002 
	C799.194336,119.206322 775.300903,123.521355 751.727600,129.098953 
	C730.493713,134.123016 709.552856,140.514236 688.707764,147.022964 
	C657.930481,156.632996 627.858032,168.266998 598.780640,182.184006 
	C576.252991,192.966156 553.809570,204.094498 532.200684,216.578140 
	C510.438904,229.150085 489.324646,242.972412 468.725983,257.388947 
	C450.786926,269.944000 433.613068,283.670166 416.744690,297.655182 
	C400.345612,311.251129 384.525665,325.576508 368.912201,340.077728 
	C359.301819,349.003479 350.397827,358.713104 341.461365,368.335175 
	C330.543457,380.090759 319.366516,391.673706 309.306396,404.142029 
	C294.412842,422.600891 280.214050,441.632355 266.059967,460.673157 
	C242.365723,492.547791 222.115204,526.625610 203.871704,561.817322 
	C192.482635,583.786926 182.240356,606.396790 172.421753,629.124634 
	C155.563919,668.146729 141.943176,708.362061 132.074585,749.713135 
	C126.182854,774.400330 121.320503,799.359741 116.839722,824.348206 
	C113.628860,842.254578 111.398727,860.368469 109.525414,878.472046 
	C108.232361,890.968079 107.831680,903.604919 107.843979,916.178101 
	C107.875717,948.633179 108.124557,981.092224 108.747360,1013.540955 
	C109.122208,1033.070312 110.186005,1052.593018 111.282837,1072.099365 
	C111.827393,1081.784058 112.483963,1091.548340 114.255478,1101.059448 
	C117.517723,1118.574219 121.303185,1136.010010 125.474243,1153.333252 
	C134.555054,1191.047974 145.056213,1228.374512 158.390762,1264.830078 
	C163.632599,1279.160889 169.709534,1293.186279 175.406174,1307.350708 
	C175.935776,1307.276733 176.465378,1307.202637 176.994980,1307.128662 
	C177.725998,1305.520630 178.634445,1303.968384 179.161560,1302.296143 
	C187.821594,1274.822998 201.289719,1249.808228 218.244293,1226.657715 
	C229.116638,1211.812012 240.962372,1197.704834 255.227798,1185.974243 
	C275.163727,1169.580688 297.181854,1156.463013 320.641296,1145.696777 
	C345.366791,1134.349854 370.758057,1125.282227 397.815308,1121.241577 
	C402.391449,1120.558105 406.711426,1118.159302 411.149750,1116.552979 
	C398.584167,1114.722534 391.753754,1106.654907 386.500549,1097.279419 
	C380.540710,1086.642456 382.306793,1079.107422 390.760071,1071.750732 
	C395.649628,1067.495483 399.845398,1062.452271 404.618896,1058.051758 
	C409.338348,1053.701050 411.211792,1048.357666 411.490723,1042.160889 
	C412.019592,1030.410034 412.662842,1018.664551 413.222961,1006.915100 
	C414.034363,989.895203 423.079742,977.556641 435.735199,967.282471 
	C442.961395,961.415955 451.765686,959.076843 460.433319,956.508728 
	C464.019196,955.446289 465.710388,953.500000 465.179962,949.619751 
	C464.487915,944.557190 464.151276,939.446411 463.477966,934.380798 
	C462.376282,926.091919 461.276764,917.797180 459.874786,909.556152 
	C459.187195,905.514282 456.732239,903.673340 452.185150,903.505798 
	C448.637634,903.375183 444.708130,901.994568 441.740936,899.993958 
	C434.033020,894.796814 429.294159,886.971069 427.912933,878.028625 
	C425.433960,861.979065 423.228943,845.803955 422.409698,829.605408 
	C421.639771,814.381897 422.922668,799.061707 423.090851,783.781677 
	C423.263000,768.147888 426.030518,753.006592 430.977692,738.215759 
	C435.128998,725.804382 440.069275,721.837891 452.996735,720.872986 
	C456.267914,720.628784 458.365631,719.075806 458.900024,715.921082 
	C459.993958,709.463379 461.070740,702.990784 461.787384,696.483826 
	C463.085571,684.696228 463.330536,672.737427 465.431671,661.105957 
	C469.008362,641.306030 473.368073,621.630615 477.970764,602.037170 
	C484.241333,575.343689 494.063904,549.825378 505.907379,525.172363 
	C513.276001,509.834045 521.635193,494.939148 530.141479,480.186371 
	C549.215454,447.105438 572.582947,417.194366 598.945984,389.648987 
	C606.849426,381.391083 615.349915,373.639404 624.088318,366.261627 
	C636.308716,355.944061 648.570190,345.576752 661.595215,336.331207 
	C688.017334,317.576050 715.969177,301.355774 745.733093,288.345947 
	C767.024963,279.039246 788.809082,271.200409 811.265076,265.241608 
	C833.494873,259.342773 855.895569,254.235916 878.829102,251.975296 
	C895.733398,250.308990 912.646790,248.325302 929.601196,247.694336 
	C945.865662,247.089066 962.198242,247.779709 978.481812,248.401505 
	C990.337219,248.854202 1002.307068,249.255203 1013.968079,251.214081 
	C1035.096069,254.763290 1056.160034,258.909058 1077.020874,263.788330 
	C1119.564697,273.739258 1159.286987,290.827454 1196.851318,313.026489 
	C1239.261230,338.089203 1277.618774,368.255707 1310.017456,405.439880 
	C1324.833984,422.444733 1338.582642,440.465179 1351.789307,458.765594 
	C1367.280762,480.232086 1380.244019,503.386505 1390.390259,527.825134 
	C1399.271118,549.216125 1407.381348,571.023315 1414.173706,593.155640 
	C1419.980957,612.077209 1424.017090,631.610168 1427.726929,651.084045 
	C1430.243896,664.296387 1430.856323,677.872742 1432.291016,691.289490 
	C1432.833740,696.364746 1433.656616,701.445190 1433.708130,706.529785 
	C1433.789795,714.583435 1436.843994,718.513184 1445.421387,720.108765 
	C1458.417114,722.526245 1462.120972,734.312317 1465.359253,745.038696 
	C1470.637939,762.523804 1471.518311,780.804626 1471.663696,798.878052 
	C1471.813354,817.513184 1470.535400,836.208923 1468.884766,854.789551 
	C1468.006592,864.677551 1465.521362,874.520020 1462.812500,884.115173 
	C1460.886719,890.936646 1457.494019,897.674805 1450.585815,900.867859 
	C1446.265625,902.864685 1441.254272,903.366211 1435.921021,905.082458 
M738.899170,1371.717163 
	C737.525635,1371.148804 736.150085,1370.585083 734.778748,1370.011353 
	C718.354126,1363.141113 701.661621,1356.835205 685.593262,1349.213623 
	C673.407043,1343.433472 662.046997,1335.921387 650.253845,1329.296753 
	C646.351929,1327.104736 642.246094,1325.275879 638.233521,1323.281006 
	C637.636536,1323.726440 637.039612,1324.171875 636.442627,1324.617432 
	C646.091309,1360.222412 653.025269,1396.282227 654.277771,1433.123291 
	C655.541382,1470.290649 656.064453,1507.483276 656.916992,1544.883301 
	C658.108154,1544.469727 659.711670,1544.073853 661.174438,1543.381104 
	C682.180786,1533.431030 701.960999,1535.896729 720.594666,1549.310791 
	C741.240601,1564.173706 743.273071,1588.072388 738.730164,1611.613647 
	C736.787170,1621.681763 729.422424,1628.789185 721.943542,1635.022461 
	C705.035156,1649.114746 685.741760,1652.560059 664.965759,1645.166870 
	C658.229065,1642.769653 652.001648,1638.941406 645.015076,1635.509155 
	C644.211426,1638.015381 643.447021,1640.135254 642.850342,1642.301392 
	C637.672424,1661.099365 632.822876,1679.994385 627.268433,1698.679932 
	C623.241943,1712.225342 618.414673,1725.539551 613.683472,1738.864136 
	C612.214844,1743.000488 613.495605,1745.022583 617.287537,1746.429932 
	C633.926453,1752.605469 650.396973,1759.266846 667.185730,1764.998901 
	C689.687195,1772.681519 712.216492,1780.430420 735.123413,1786.735229 
	C756.875366,1792.722168 779.005981,1797.550781 801.197754,1801.659058 
	C822.315186,1805.568359 843.681213,1808.276611 865.023621,1810.783691 
	C882.225281,1812.804321 899.542969,1814.712769 916.830261,1814.920776 
	C941.895325,1815.222534 966.990173,1814.221558 992.051331,1813.239624 
	C1006.866272,1812.659180 1021.707336,1811.583130 1036.416870,1809.762085 
	C1056.277222,1807.303345 1076.143311,1804.546021 1095.790039,1800.784058 
	C1129.746216,1794.282104 1163.477539,1786.638916 1196.101318,1774.920166 
	C1221.554688,1765.777100 1246.878174,1756.273071 1272.275269,1746.972656 
	C1276.537476,1745.411865 1278.421753,1743.136108 1276.454468,1738.368530 
	C1273.197754,1730.476440 1270.306152,1722.432251 1267.320068,1714.429932 
	C1258.758301,1691.486084 1251.090332,1668.300171 1247.808594,1643.883789 
	C1247.356323,1640.519165 1246.108276,1637.261597 1245.139526,1633.619263 
	C1210.722900,1656.869507 1183.426636,1645.533813 1168.569336,1630.440308 
	C1151.455811,1613.054810 1148.079224,1586.999146 1158.475952,1566.192017 
	C1163.501953,1556.133301 1170.771362,1547.726807 1181.066650,1543.162109 
	C1196.884888,1536.148804 1213.348633,1533.254272 1230.502808,1540.191650 
	C1230.998901,1538.474121 1231.657715,1537.097046 1231.765015,1535.678223 
	C1232.638428,1524.145996 1233.633667,1512.616211 1234.158325,1501.066040 
	C1234.970703,1483.182373 1235.169312,1465.268555 1236.136963,1447.395020 
	C1236.991943,1431.603149 1238.480957,1415.843628 1239.799683,1400.079102 
	C1241.753540,1376.723755 1247.026733,1354.039795 1253.764282,1331.651001 
	C1254.737427,1328.416992 1255.218262,1325.035156 1255.927002,1321.721680 
	C1255.508423,1321.496948 1255.089844,1321.272217 1254.671265,1321.047485 
	C1248.416260,1324.931274 1242.362671,1329.197144 1235.865601,1332.621704 
	C1220.798218,1340.563965 1205.579956,1348.228149 1190.306396,1355.769043 
	C1168.990356,1366.293213 1146.967041,1375.026245 1124.165894,1381.862671 
	C1087.600342,1392.825806 1050.483887,1400.963379 1012.363586,1403.781494 
	C996.668030,1404.941895 980.894714,1405.619385 965.160767,1405.554199 
	C942.441895,1405.459839 919.718506,1404.696777 897.012878,1403.812866 
	C883.844788,1403.300415 870.585022,1402.806274 857.586487,1400.845215 
	C839.780701,1398.159058 822.006714,1394.796509 804.542542,1390.430176 
	C782.737305,1384.978516 761.260986,1378.211426 738.899170,1371.717163 
M1183.140381,763.291016 
	C1184.995117,774.435791 1187.986206,785.534668 1188.439209,796.736145 
	C1189.126221,813.722717 1189.153931,830.894714 1187.410767,847.776123 
	C1185.676147,864.574402 1180.604004,880.913147 1173.196777,896.241821 
	C1165.586426,911.990784 1157.272339,927.399292 1149.636475,943.136475 
	C1144.684326,953.342957 1139.839478,963.669922 1135.983765,974.318481 
	C1132.842773,982.993591 1136.551392,989.456543 1146.600952,996.422241 
	C1152.402222,1000.443298 1160.016602,1000.210205 1166.578003,996.015869 
	C1183.136963,985.430603 1196.001465,970.980591 1208.059570,955.827087 
	C1228.869019,929.675659 1243.649536,900.155701 1255.998657,869.228882 
	C1269.394043,835.682312 1274.013916,800.638611 1274.588135,764.932373 
	C1274.843262,749.060181 1273.794312,733.146423 1272.822510,717.283081 
	C1272.262451,708.140686 1271.492798,698.864685 1269.362549,689.998413 
	C1265.991211,675.966675 1261.993042,662.018250 1257.184204,648.414917 
	C1249.966187,627.997131 1240.783569,608.341553 1228.659546,590.358276 
	C1219.291138,576.462219 1209.297729,562.895142 1198.534424,550.060486 
	C1189.626587,539.438416 1179.696411,529.525024 1169.301758,520.335327 
	C1155.476562,508.112854 1140.223877,497.692352 1123.933716,488.871826 
	C1101.608154,476.783447 1079.287598,464.758270 1054.100342,459.412994 
	C1044.352417,457.344299 1031.433350,464.375092 1030.204102,474.170227 
	C1028.441040,488.219574 1027.519897,502.439697 1027.297852,516.603455 
	C1026.867065,544.086731 1027.098389,571.581787 1027.209229,599.071350 
	C1027.256836,610.846985 1030.809326,621.432373 1040.623535,628.601807 
	C1046.288086,632.739929 1052.665405,636.062012 1059.066528,639.000671 
	C1073.845337,645.785400 1089.227417,651.352295 1103.643433,658.807922 
	C1123.865112,669.266052 1140.092041,684.844543 1153.729614,702.945862 
	C1167.250610,720.892761 1176.641724,740.998474 1183.140381,763.291016 
M283.635437,1357.091919 
	C286.562439,1357.462769 289.534119,1357.624023 292.409546,1358.236938 
	C323.747681,1364.917358 352.907593,1377.046753 380.726410,1392.851685 
	C416.459473,1413.152954 448.436584,1438.330078 477.654785,1467.004272 
	C492.808289,1481.875488 506.983124,1497.752563 521.405518,1513.355103 
	C526.153748,1518.492065 530.291138,1524.193726 535.149475,1530.181519 
	C536.079102,1528.156982 536.746094,1527.191406 536.974487,1526.131226 
	C539.246948,1515.583740 541.904602,1505.091919 543.559082,1494.445190 
	C545.978149,1478.878418 547.756592,1463.208618 549.616028,1447.560059 
	C550.394348,1441.009277 550.914551,1434.407959 551.135132,1427.815674 
	C551.466980,1417.897461 551.681763,1408.002686 547.513428,1398.540527 
	C541.140076,1384.072998 534.318420,1369.733032 529.095520,1354.844727 
	C520.805603,1331.213623 516.016785,1306.686890 513.796265,1281.710083 
	C512.192749,1263.674316 510.399017,1245.647339 509.278442,1227.579956 
	C508.634033,1217.190308 509.161621,1206.727905 509.161621,1196.921265 
	C497.784607,1189.873535 487.471466,1183.661987 477.379120,1177.110352 
	C474.799622,1175.435791 472.888977,1175.643433 470.282532,1176.684082 
	C443.330719,1187.443848 418.055084,1201.531128 393.768005,1217.145752 
	C375.128601,1229.129272 357.296722,1242.528931 340.044891,1256.461670 
	C325.160950,1268.482178 311.429688,1281.960938 297.498138,1295.122437 
	C277.955170,1313.585083 260.957397,1334.333374 244.947403,1355.852417 
	C237.084473,1366.421021 230.054459,1377.619019 222.906158,1388.698975 
	C221.875687,1390.296143 221.342941,1393.407349 222.204483,1394.842773 
	C228.837616,1405.894287 235.864349,1416.709595 242.784195,1427.588501 
	C247.115494,1434.397949 251.831863,1440.461426 261.388763,1437.015869 
	C261.980011,1436.802612 262.714569,1436.937378 263.377899,1436.980591 
	C272.927246,1437.603149 282.618286,1437.417969 291.993774,1439.046753 
	C309.381744,1442.067749 326.857422,1445.193481 343.802765,1450.011963 
	C370.109406,1457.492554 394.388275,1470.032104 417.966827,1483.714722 
	C450.422882,1502.548950 480.324036,1525.004883 508.986053,1549.167114 
	C514.279846,1553.629883 520.059814,1557.515869 525.615356,1561.667969 
	C525.919373,1561.357422 526.223389,1561.046997 526.527344,1560.736450 
	C526.100098,1559.937012 525.771790,1559.062256 525.229919,1558.349976 
	C520.837952,1552.578125 516.654053,1546.623779 511.937195,1541.128052 
	C500.210693,1527.464844 488.428345,1513.838867 476.279572,1500.553467 
	C470.134338,1493.833252 463.373810,1487.622070 456.491669,1481.640747 
	C442.282776,1469.291992 428.414490,1456.421875 413.270782,1445.314087 
	C397.646301,1433.853271 381.054932,1423.561890 364.206116,1413.952026 
	C334.827606,1397.195923 303.725677,1384.997314 269.556091,1382.142456 
	C264.170837,1381.692505 258.785583,1380.767700 253.512787,1379.568237 
	C247.066513,1378.101929 245.201065,1374.368896 247.518875,1368.080688 
	C249.279083,1363.305176 251.381241,1358.655640 253.404251,1353.774048 
	C256.706024,1354.015625 259.986328,1354.149902 263.240601,1354.516113 
	C269.756744,1355.249268 276.258636,1356.109253 283.635437,1357.091919 
M1282.532104,418.969482 
	C1276.870972,413.606750 1271.159058,408.296509 1265.558350,402.871307 
	C1249.390137,387.209412 1231.569458,373.599396 1213.018188,360.956146 
	C1187.308716,343.434357 1160.138794,328.514496 1131.385132,316.570007 
	C1095.163940,301.523376 1058.120361,289.206360 1018.874268,285.163086 
	C999.009216,283.116547 979.050110,281.567352 959.096863,280.917053 
	C941.349792,280.338623 923.536621,280.950500 905.782166,281.719513 
	C893.123657,282.267792 880.299500,282.878693 867.931274,285.363342 
	C847.560181,289.455566 827.255432,294.276031 807.356201,300.236847 
	C764.959045,312.936951 725.373413,331.939911 688.480164,356.416321 
	C661.331665,374.427643 635.896790,394.561981 613.774414,418.609406 
	C604.147095,429.074402 594.653259,439.677429 585.464600,450.527618 
	C566.044739,473.458862 550.386292,498.909546 536.528748,525.476440 
	C521.016724,555.214905 509.634491,586.589783 501.205444,618.985840 
	C497.493958,633.250427 493.776733,647.628113 493.908417,662.623352 
	C493.946686,666.980957 496.010864,668.219971 499.779419,667.922729 
	C505.442749,667.476013 506.785675,662.855042 508.106720,658.661804 
	C515.312988,635.787659 521.848145,612.689392 529.577454,589.996338 
	C537.215088,567.572266 548.201721,546.601318 560.554688,526.406372 
	C574.350647,503.852356 589.726562,482.384338 607.877991,463.140198 
	C622.759033,447.363342 637.830078,431.651215 653.991943,417.227051 
	C672.648071,400.576813 693.485962,386.704651 715.083923,373.951843 
	C739.563049,359.497833 765.263000,347.790649 791.882629,338.070160 
	C833.856506,322.742859 877.225708,313.870728 921.923523,313.156342 
	C948.952148,312.724396 976.013794,314.115631 1003.054932,314.886475 
	C1009.138977,315.059906 1015.301697,315.561157 1021.251282,316.777374 
	C1038.549805,320.313416 1055.844360,323.941589 1072.983154,328.170990 
	C1100.375732,334.930695 1126.578003,345.148804 1151.921875,357.435242 
	C1173.062988,367.684204 1193.499878,379.318726 1212.264526,393.511200 
	C1229.702881,406.700348 1247.175537,419.961212 1263.502319,434.463440 
	C1275.208130,444.861023 1285.377808,457.074188 1295.650391,468.979797 
	C1313.164185,489.277496 1328.281616,511.373657 1340.696533,535.095398 
	C1350.401001,553.638123 1359.466064,572.610962 1367.304443,592.003357 
	C1373.188110,606.559692 1376.769531,622.057495 1381.186401,637.191467 
	C1383.838989,646.279663 1385.929199,655.533813 1388.662842,664.595581 
	C1390.044922,669.176941 1394.013916,669.584473 1398.015869,668.459290 
	C1402.118164,667.306030 1403.066040,663.643433 1402.566528,660.247803 
	C1401.235107,651.197144 1399.357178,642.225647 1397.644287,633.232666 
	C1391.635742,601.685791 1381.266846,571.506714 1367.820923,542.462402 
	C1355.042725,514.860718 1340.199829,488.317841 1321.099976,464.493988 
	C1308.811157,449.165710 1295.739258,434.465271 1282.532104,418.969482 
M1099.741089,1159.130249 
	C1108.526001,1157.008667 1117.524780,1155.520264 1126.052734,1152.638428 
	C1146.081055,1145.870605 1165.948853,1138.609619 1185.760742,1131.223877 
	C1205.652954,1123.808105 1224.122559,1113.467163 1241.738892,1101.776489 
	C1261.940186,1088.370483 1279.816162,1072.218018 1296.035278,1054.103760 
	C1308.723877,1039.932617 1318.889282,1024.307983 1326.937012,1007.174683 
	C1333.388306,993.439941 1332.977661,978.537354 1333.718018,964.002258 
	C1334.766113,943.425781 1334.522949,922.783508 1334.826050,902.169250 
	C1334.849243,900.593445 1334.829224,899.016968 1334.829224,897.565918 
	C1328.084351,897.565918 1322.148315,897.565918 1315.912231,897.565918 
	C1315.912231,899.501709 1315.961426,901.148499 1315.904663,902.791626 
	C1315.298950,920.336121 1314.936890,937.894104 1313.983154,955.419922 
	C1313.080811,971.999817 1307.292480,987.371460 1299.803955,1001.893127 
	C1286.894165,1026.926758 1268.388306,1047.499390 1245.994385,1064.396118 
	C1219.176880,1084.630737 1189.217407,1099.139038 1157.480835,1109.710693 
	C1138.219727,1116.126587 1118.494995,1121.211304 1098.842163,1126.375122 
	C1072.383911,1133.327026 1045.308472,1136.595581 1018.073425,1138.480957 
	C1005.691101,1139.338135 993.264771,1140.166382 980.866150,1140.064697 
	C948.455505,1139.799072 916.022156,1139.627075 883.651245,1138.203857 
	C864.478027,1137.360718 845.362061,1134.547119 826.298950,1132.025269 
	C798.432434,1128.338745 771.158203,1121.832275 744.319946,1113.481567 
	C721.139404,1106.269043 698.745605,1097.177734 677.459534,1085.469238 
	C657.555359,1074.520752 639.139709,1061.331787 623.562561,1044.870605 
	C614.013245,1034.779297 605.915466,1023.162048 598.148804,1011.571350 
	C586.111267,993.607117 580.091797,973.217773 577.354370,951.945618 
	C575.670410,938.860840 575.153748,925.629700 573.776855,912.499512 
	C573.286804,907.825989 572.138000,903.139954 570.585327,898.706360 
	C570.081909,897.268982 567.363892,895.896606 565.605713,895.826416 
	C564.107971,895.766663 562.166382,897.333313 561.098511,898.707031 
	C560.060669,900.041992 559.511169,902.020325 559.388794,903.761230 
	C558.449768,917.122925 557.213928,930.487732 556.982361,943.867371 
	C556.802490,954.256409 557.702393,964.687073 558.537231,975.065857 
	C560.128479,994.848633 566.700012,1013.018311 577.544861,1029.562744 
	C592.319275,1052.101685 611.284668,1070.922729 632.153564,1087.614136 
	C652.551392,1103.928589 674.930359,1117.283447 698.856812,1128.081543 
	C725.635559,1140.166748 753.258240,1149.490234 781.768005,1156.487305 
	C812.343933,1163.991333 843.329102,1168.676880 874.695557,1170.731934 
	C891.389038,1171.825439 908.150452,1172.675171 924.866638,1172.465942 
	C960.229614,1172.023804 995.585388,1170.895630 1030.938477,1169.856934 
	C1038.993286,1169.620361 1047.112183,1169.134766 1055.048950,1167.833252 
	C1069.755371,1165.421265 1084.349365,1162.322632 1099.741089,1159.130249 
M770.456238,563.897583 
	C774.014893,559.775146 777.653992,555.718933 781.115967,551.516846 
	C788.998108,541.949829 796.900085,532.395203 804.573120,522.661377 
	C807.788879,518.581909 808.476013,513.440735 805.305115,509.368805 
	C801.208374,504.108063 796.442810,499.158051 791.165833,495.118500 
	C788.675293,493.211914 783.904419,492.440552 780.895813,493.412201 
	C773.007568,495.959808 764.883728,498.764008 757.988831,503.221558 
	C734.666504,518.299377 714.471008,536.989075 696.385864,558.131958 
	C680.415283,576.802917 667.118469,597.162659 656.119202,618.984680 
	C642.196289,646.606750 632.008484,675.584717 626.261475,706.093811 
	C622.687378,725.067627 620.092651,744.133545 620.383301,763.428589 
	C620.544128,774.106689 621.795044,784.802124 623.106201,795.421631 
	C625.340515,813.518372 629.483276,831.205627 636.202820,848.201599 
	C637.476501,851.423096 639.527771,854.337097 641.220276,857.393005 
	C641.899414,857.276978 642.578613,857.160889 643.257812,857.044800 
	C643.971497,853.806335 645.113220,850.595764 645.326599,847.324707 
	C646.382385,831.136536 646.857727,814.904663 648.196594,798.742798 
	C649.253052,785.988708 650.690674,773.209778 652.967590,760.624390 
	C658.492615,730.086426 669.269897,701.404602 684.319092,674.221130 
	C696.098206,652.944458 710.055786,633.175415 725.441711,614.503479 
	C739.637634,597.275574 755.062561,581.060486 770.456238,563.897583 
M1128.003540,379.341339 
	C1131.872437,381.178436 1135.902710,382.740143 1139.583008,384.898834 
	C1158.789429,396.164429 1178.673706,406.490417 1196.840576,419.252350 
	C1215.112427,432.088135 1232.051392,446.941986 1248.788818,461.796539 
	C1259.037476,470.892120 1268.222900,481.299835 1277.133911,491.759033 
	C1287.601196,504.045135 1297.945435,516.549622 1307.080322,529.828064 
	C1317.973145,545.662109 1327.513916,562.425476 1337.690674,578.754944 
	C1338.298462,579.730164 1339.349487,580.429077 1340.969482,582.016113 
	C1340.969482,580.006897 1341.175049,579.276428 1340.939087,578.740051 
	C1336.491821,568.626709 1332.622559,558.192749 1327.351562,548.524231 
	C1320.022339,535.080322 1311.987427,521.983398 1303.621094,509.151062 
	C1289.128906,486.922913 1271.620239,467.082825 1253.221558,448.054474 
	C1246.807495,441.420929 1240.036011,435.012177 1232.763672,429.354462 
	C1217.946533,417.827118 1203.343506,405.801147 1187.420166,395.977875 
	C1169.203247,384.739655 1150.093384,374.672546 1130.544434,365.950256 
	C1112.160645,357.747894 1092.937744,351.175842 1073.649048,345.319611 
	C1052.333008,338.847900 1030.473267,334.302887 1008.125427,332.680359 
	C992.861328,331.572174 977.625610,329.516724 962.351685,329.226624 
	C938.185242,328.767609 913.932861,327.798431 889.904236,331.836731 
	C878.110962,333.818817 866.230286,335.420990 854.566589,337.997986 
	C840.195251,341.173218 825.972717,345.050385 811.750488,348.865204 
	C786.585022,355.615173 762.994446,366.334290 740.169312,378.629852 
	C709.898926,394.936096 681.858887,414.657288 656.490723,437.842224 
	C637.877747,454.853333 620.602661,473.290253 605.325989,493.441498 
	C587.412354,517.071167 572.390198,542.472412 559.808533,569.310364 
	C556.754517,575.824890 554.039429,582.498291 551.168518,589.098572 
	C551.630371,589.334412 552.092285,589.570251 552.554138,589.806030 
	C559.469116,578.822327 565.907410,567.500916 573.398865,556.925476 
	C588.737427,535.272522 604.141235,513.627625 620.517517,492.763824 
	C629.052490,481.890076 639.365601,472.314056 649.503418,462.822601 
	C660.822327,452.225433 672.359314,441.741547 684.670044,432.346710 
	C717.134399,407.571838 751.933105,386.545563 789.880737,371.206512 
	C816.385925,360.492706 843.282776,350.507507 871.890991,347.160736 
	C893.662476,344.613739 915.575195,342.702179 937.473450,341.984863 
	C956.188660,341.371796 974.969421,343.062073 993.727173,343.360565 
	C1012.769897,343.663574 1031.288452,347.279633 1049.582886,351.970276 
	C1076.225464,358.801392 1102.186646,367.744781 1128.003540,379.341339 
M1288.986084,1578.469238 
	C1289.013794,1576.804810 1288.932007,1575.130127 1289.086792,1573.477539 
	C1290.251709,1561.033203 1291.474121,1548.594116 1292.657104,1536.151489 
	C1293.840576,1523.703613 1294.807007,1511.231567 1296.226318,1498.811035 
	C1297.473633,1487.895752 1299.126343,1477.023804 1300.761719,1466.156860 
	C1302.908081,1451.895264 1305.405273,1437.684204 1307.400757,1423.402466 
	C1309.813721,1406.133545 1311.983032,1388.827881 1314.011230,1371.509277 
	C1314.987427,1363.173462 1314.730469,1354.650757 1316.217651,1346.427124 
	C1318.575928,1333.385010 1321.348389,1320.356445 1324.997681,1307.623779 
	C1330.430298,1288.668091 1337.591919,1270.254883 1349.268433,1254.169678 
	C1354.783203,1246.572754 1360.195312,1239.285767 1360.426025,1229.525513 
	C1360.594238,1222.408569 1360.458984,1215.284424 1360.458984,1208.163574 
	C1359.895020,1208.026001 1359.331055,1207.888428 1358.767212,1207.750854 
	C1356.584473,1210.376953 1354.439453,1213.035522 1352.212891,1215.623779 
	C1337.754517,1232.430542 1324.397827,1250.139404 1315.208618,1270.333984 
	C1306.834106,1288.737793 1299.421753,1307.665039 1292.924927,1326.816040 
	C1284.797119,1350.775635 1278.601807,1375.364990 1276.435669,1400.685181 
	C1274.550659,1422.720581 1272.749634,1444.804199 1272.178101,1466.899292 
	C1271.602783,1489.145630 1272.534790,1511.433228 1272.918945,1533.700806 
	C1273.067505,1542.309570 1273.473389,1550.915161 1273.864990,1559.517578 
	C1274.045654,1563.483276 1274.301514,1567.460571 1274.821899,1571.392944 
	C1276.478638,1583.915894 1278.143066,1596.440674 1280.073242,1608.923218 
	C1281.074829,1615.398926 1282.642700,1621.787231 1283.954712,1628.214966 
	C1284.285645,1628.165283 1284.616455,1628.115723 1284.947388,1628.066040 
	C1286.304199,1611.845947 1287.661133,1595.625854 1288.986084,1578.469238 
M580.923462,1363.744873 
	C581.237793,1370.020630 581.358643,1376.313477 581.910950,1382.568237 
	C582.781128,1392.422363 583.679932,1402.287476 585.045227,1412.081055 
	C586.739258,1424.231445 589.257629,1436.270874 590.809448,1448.436157 
	C592.870850,1464.596313 594.333923,1480.832764 596.070435,1497.034668 
	C597.892212,1514.032104 599.874878,1531.013794 601.530396,1548.027344 
	C603.660828,1569.921143 605.535767,1591.839844 607.520752,1613.747925 
	C607.965759,1613.823364 608.410767,1613.898682 608.855774,1613.974121 
	C609.412170,1612.758545 610.295044,1611.589355 610.474731,1610.320435 
	C612.360901,1597.005249 614.415649,1583.704834 615.871155,1570.340088 
	C617.887085,1551.829590 619.972351,1533.297607 621.003845,1514.718018 
	C621.845825,1499.551392 621.420471,1484.296875 621.119446,1469.089966 
	C620.873779,1456.678955 620.485291,1444.230347 619.253662,1431.888916 
	C617.543518,1414.752441 615.569763,1397.599976 612.649414,1380.636841 
	C608.583679,1357.020264 602.964233,1333.660034 594.050903,1311.376953 
	C587.140503,1294.101196 579.460266,1277.045654 570.790100,1260.594238 
	C565.544128,1250.640381 558.087585,1241.762207 551.013916,1232.887329 
	C544.632385,1224.880859 537.420410,1217.536255 529.609619,1208.823242 
	C530.095093,1216.573730 529.639465,1223.019043 531.106262,1228.992188 
	C532.681091,1235.404907 535.502502,1241.695435 538.805237,1247.450928 
	C542.468750,1253.834961 547.879639,1259.221191 551.499634,1265.624268 
	C562.535522,1285.144531 569.881470,1306.160278 574.677063,1328.010010 
	C577.202209,1339.515015 578.867432,1351.208618 580.923462,1363.744873 
M255.134293,1283.618286 
	C260.772858,1275.904297 266.639496,1268.344971 272.002228,1260.443726 
	C282.932098,1244.339966 292.552856,1227.422852 305.898041,1212.911987 
	C321.698364,1195.731689 338.079407,1178.965088 359.250458,1169.149536 
	C378.062592,1160.427490 398.422882,1155.036255 418.123444,1148.243530 
	C424.369202,1146.090088 430.691162,1144.157715 436.978271,1142.124268 
	C436.841187,1141.548462 436.704102,1140.972656 436.567017,1140.396729 
	C428.327850,1141.579468 420.035736,1142.477051 411.858673,1143.994385 
	C376.929871,1150.475708 343.104095,1160.174561 311.941681,1177.907349 
	C287.130554,1192.026123 265.101471,1209.516113 246.696945,1231.297607 
	C222.254593,1260.224854 206.590286,1293.730713 196.909622,1330.148560 
	C195.017044,1337.268433 194.268585,1344.472900 198.253601,1351.352783 
	C200.540436,1355.300659 201.724823,1355.454590 204.522720,1351.688965 
	C221.243607,1329.184326 237.954819,1306.672607 255.134293,1283.618286 
M1425.550903,1637.111084 
	C1431.742554,1629.989258 1437.549805,1622.480835 1444.225098,1615.845581 
	C1452.183228,1607.935059 1460.646851,1600.483521 1469.314331,1593.346436 
	C1487.743896,1578.171143 1507.983398,1565.878540 1530.188599,1556.995605 
	C1541.386719,1552.516113 1551.793335,1546.931641 1559.804565,1537.655396 
	C1570.696655,1525.042969 1581.564575,1512.409180 1592.349976,1499.705566 
	C1593.238770,1498.658569 1593.418579,1497.009888 1594.294312,1494.656372 
	C1586.477051,1496.829590 1579.859375,1498.514526 1573.336670,1500.510254 
	C1548.363892,1508.151367 1525.626709,1520.613159 1502.803589,1532.989014 
	C1475.386108,1547.855957 1452.256348,1568.206055 1429.589722,1589.152832 
	C1419.199951,1598.754395 1409.681519,1609.294312 1399.395508,1619.014648 
	C1394.851074,1623.309082 1392.804443,1627.398193 1394.592407,1633.792358 
	C1395.854492,1638.305908 1395.282104,1643.311523 1395.727661,1648.078735 
	C1396.560303,1656.987671 1397.537476,1665.883057 1398.592773,1676.125977 
	C1407.968140,1662.579224 1416.567749,1650.153320 1425.550903,1637.111084 
M512.865601,919.500061 
	C512.865601,860.836121 512.807434,802.172058 512.907776,743.508301 
	C512.931885,729.402649 513.430298,715.296448 513.827332,701.193787 
	C513.922119,697.826965 512.992371,694.954590 509.641876,694.232239 
	C501.893738,692.561523 494.048920,692.117981 485.851654,694.159180 
	C485.250519,708.693298 484.139099,723.054932 484.157745,737.415161 
	C484.218292,784.016724 484.645599,830.618286 485.039978,877.218872 
	C485.143860,889.490601 485.510986,901.764099 485.991882,914.027588 
	C486.432037,925.252502 487.118774,936.469910 487.909851,947.675598 
	C487.993988,948.867371 489.472351,950.913940 490.361694,950.945740 
	C497.776611,951.210815 505.205048,951.096191 512.865601,951.096191 
	C512.865601,940.452148 512.865601,930.476135 512.865601,919.500061 
M1477.439697,1517.874023 
	C1493.737915,1508.881592 1509.740479,1499.292236 1526.403687,1491.036133 
	C1551.496582,1478.604004 1578.013794,1470.534546 1606.112549,1468.243164 
	C1611.993896,1467.763672 1617.763794,1465.890625 1621.418213,1461.180908 
	C1629.496826,1450.768921 1637.006104,1439.915161 1644.720337,1429.221924 
	C1644.854248,1429.036377 1644.645752,1428.603516 1644.491821,1427.600708 
	C1642.797119,1427.435547 1640.876221,1426.879395 1639.071167,1427.136841 
	C1631.457520,1428.222290 1623.909668,1429.802246 1616.281250,1430.743896 
	C1591.535767,1433.797852 1568.384155,1442.077759 1545.923584,1452.371094 
	C1525.339966,1461.804321 1505.655151,1473.034668 1487.438232,1486.463745 
	C1468.113525,1500.709351 1449.077515,1515.412476 1430.674561,1530.822388 
	C1415.060791,1543.896973 1400.417358,1558.144897 1385.563477,1572.106445 
	C1378.011475,1579.204834 1377.139038,1588.109009 1382.581909,1596.654419 
	C1383.384888,1596.112671 1384.266724,1595.666504 1384.967285,1595.023071 
	C1400.093262,1581.128540 1414.718018,1566.637573 1430.447998,1553.465942 
	C1445.308960,1541.022217 1461.327393,1529.960815 1477.439697,1517.874023 
M294.447235,1496.078247 
	C299.764282,1501.389526 305.825775,1503.795654 313.656036,1504.597046 
	C323.798615,1505.635254 333.699677,1509.252930 343.641785,1511.988770 
	C373.334564,1520.159546 401.230652,1532.599609 427.483337,1548.564209 
	C454.380524,1564.920898 478.965729,1584.325806 501.114563,1606.760132 
	C502.529877,1608.193848 504.325684,1609.251953 506.521393,1610.923950 
	C509.269073,1603.788574 511.924744,1597.401367 514.100830,1590.854736 
	C514.595581,1589.366211 513.951416,1586.894775 512.911316,1585.636108 
	C511.170013,1583.528564 508.721252,1581.990112 506.513367,1580.285889 
	C489.985016,1567.527588 473.308105,1554.957642 456.935608,1542.002686 
	C430.546722,1521.122314 401.814941,1504.293945 371.467865,1489.789917 
	C342.040802,1475.725830 311.232605,1467.274170 279.090088,1463.057861 
	C276.129456,1462.669556 273.073730,1463.006226 270.062164,1463.006226 
	C269.715698,1463.709106 269.369232,1464.411987 269.022797,1465.114990 
	C277.328735,1475.269287 285.634674,1485.423706 294.447235,1496.078247 
M1381.237793,892.499878 
	C1381.237793,912.131409 1381.237793,931.762878 1381.237793,951.475647 
	C1389.191772,950.937744 1396.743652,950.427063 1404.865723,949.877808 
	C1405.963623,928.723755 1407.342163,907.776428 1408.055542,886.806580 
	C1408.744873,866.546997 1408.947754,846.264709 1409.011963,825.991333 
	C1409.148438,782.828003 1409.059204,739.663879 1409.047241,696.500122 
	C1409.046875,695.070435 1408.884033,693.640808 1408.803955,692.325562 
	C1399.476685,692.325562 1390.557251,692.325562 1381.237793,692.325562 
	C1381.237793,758.917236 1381.237793,825.208557 1381.237793,892.499878 
M1387.320435,1111.134155 
	C1387.607910,1111.733643 1387.912964,1112.325317 1388.180176,1112.933716 
	C1389.982300,1117.035522 1391.928345,1120.072876 1397.377441,1117.253784 
	C1399.834839,1115.982544 1403.175049,1116.027222 1406.096924,1116.109131 
	C1421.867554,1116.551147 1437.006226,1113.746582 1451.224365,1106.963623 
	C1461.025269,1102.287964 1470.593262,1097.089233 1480.051514,1091.745728 
	C1484.208740,1089.397095 1484.012817,1086.731689 1480.293701,1083.714111 
	C1478.031372,1081.878296 1475.540405,1080.243042 1473.594238,1078.113647 
	C1467.620850,1071.577271 1464.508789,1063.439941 1463.091187,1054.991943 
	C1460.729248,1040.916504 1459.285278,1026.686157 1457.504761,1012.514587 
	C1456.426758,1003.934570 1455.562500,994.745239 1447.323486,990.057190 
	C1439.171509,985.418518 1430.064453,982.458191 1421.376343,978.761719 
	C1426.825562,984.767456 1432.779785,989.509827 1437.959839,994.984436 
	C1445.600220,1003.059143 1447.021240,1017.367798 1442.213501,1027.367798 
	C1433.365601,1045.770996 1406.113892,1052.578369 1387.290161,1045.353882 
	C1382.021240,1043.331665 1377.095459,1040.415405 1371.303467,1037.559937 
	C1370.910889,1063.617310 1377.211914,1087.408569 1387.320435,1111.134155 
M411.826324,1091.626343 
	C416.285858,1094.110107 420.697937,1096.683716 425.213104,1099.061890 
	C445.231628,1109.605591 466.613037,1115.920532 488.975647,1118.738647 
	C494.464783,1119.430542 500.821136,1119.922852 503.968201,1113.255493 
	C505.519379,1109.969238 507.141663,1106.647583 508.114868,1103.169434 
	C512.165710,1088.691895 516.320068,1074.227661 519.740051,1059.595947 
	C521.421021,1052.404053 521.582092,1044.856934 522.430969,1037.470581 
	C521.903137,1037.241211 521.375305,1037.011963 520.847534,1036.782593 
	C518.747498,1037.951172 516.698730,1039.226562 514.535828,1040.264160 
	C510.983826,1041.968384 507.488495,1044.391479 503.735931,1044.953247 
	C495.622223,1046.168091 487.301483,1047.324951 479.173584,1046.807251 
	C467.221375,1046.046143 457.356934,1041.021729 452.650391,1028.812378 
	C447.738251,1016.069702 446.108154,1003.752197 456.940491,993.055725 
	C460.489105,989.551514 464.642517,986.659790 468.519379,983.487976 
	C467.968994,982.896423 467.418610,982.304871 466.868225,981.713379 
	C458.434113,981.432739 451.919922,985.743896 445.767059,990.863770 
	C436.546112,998.536865 436.761108,1009.542419 435.848175,1019.990906 
	C434.899567,1030.847534 435.084381,1041.820679 433.782776,1052.623657 
	C432.630493,1062.187256 429.410492,1071.207275 421.554138,1077.788696 
	C418.137878,1080.650513 414.799530,1083.641602 411.748291,1086.877930 
	C410.958801,1087.715332 411.386230,1089.699829 411.826324,1091.626343 
M351.196899,1540.272217 
	C343.708069,1537.587891 336.219238,1534.903564 327.779083,1531.878174 
	C328.337830,1533.953003 328.322601,1534.360840 328.518982,1534.558594 
	C337.154877,1543.262085 345.283081,1552.566772 354.595978,1560.476196 
	C365.997070,1570.159058 378.219666,1578.914429 390.430817,1587.586792 
	C396.456024,1591.865967 403.553314,1594.624268 409.638214,1598.833008 
	C421.396210,1606.965576 433.048218,1615.300781 444.245758,1624.180542 
	C455.932709,1633.448364 466.204315,1644.108643 474.112000,1657.020142 
	C479.204559,1665.335205 484.451538,1673.826172 493.715179,1679.406250 
	C494.216644,1678.018433 494.789551,1677.051636 494.898376,1676.035034 
	C495.862274,1667.028687 496.710999,1658.010254 497.660065,1649.002319 
	C498.443207,1641.569946 497.159607,1635.401245 490.697449,1630.201294 
	C479.765991,1621.405273 469.640778,1611.614990 459.006989,1602.439453 
	C440.953186,1586.861206 421.084778,1573.869141 399.898315,1563.066772 
	C384.166290,1555.045288 367.880524,1548.109985 351.196899,1540.272217 
M962.500244,1189.647583 
	C931.009277,1188.735962 899.519287,1187.791382 868.026672,1186.940674 
	C861.773682,1186.771729 858.524231,1189.230713 857.913574,1194.058228 
	C856.793701,1202.911499 858.622742,1206.919189 865.585876,1208.179321 
	C873.495483,1209.610596 881.565918,1210.871582 889.574158,1210.919434 
	C933.222717,1211.180298 976.873657,1211.044800 1020.523743,1211.045410 
	C1022.097717,1211.045532 1023.671692,1211.045410 1025.168945,1211.045410 
	C1025.168945,1203.526367 1025.168945,1196.770874 1025.168945,1189.647461 
	C1004.403809,1189.647461 983.952087,1189.647461 962.500244,1189.647583 
M655.214294,1608.115723 
	C658.578735,1611.909424 661.522034,1616.210449 665.378601,1619.411133 
	C684.676575,1635.427002 705.343933,1623.895752 715.059570,1608.489868 
	C723.323059,1595.386353 718.678650,1578.009888 706.184631,1567.875977 
	C690.349243,1555.031982 667.691589,1559.265747 656.682617,1575.705200 
	C649.802368,1585.979126 650.600159,1596.566650 655.214294,1608.115723 
M1176.575439,1580.267090 
	C1171.930908,1594.608154 1175.637695,1607.905273 1186.109375,1615.884644 
	C1200.011108,1626.477539 1215.200684,1626.907837 1228.640259,1615.750000 
	C1237.177246,1608.662598 1241.055054,1598.904663 1239.878052,1587.708008 
	C1238.281006,1572.517456 1227.872070,1564.610840 1215.082642,1558.946167 
	C1213.189575,1558.107788 1210.911377,1556.895752 1209.115234,1557.279175 
	C1195.347778,1560.219849 1183.817139,1566.600708 1176.575439,1580.267090 
M1345.405518,810.487793 
	C1345.994507,821.385254 1346.616455,832.281067 1347.160278,843.180786 
	C1347.492310,849.834717 1348.930176,850.567017 1355.510254,849.474976 
	C1360.429932,848.658447 1361.685181,845.296875 1362.384888,841.617615 
	C1363.151611,837.584473 1363.294312,833.387695 1363.300049,829.261719 
	C1363.359497,786.287537 1363.336426,743.313171 1363.336304,700.338867 
	C1363.336304,697.699707 1363.336304,695.060547 1363.336304,692.322021 
	C1357.215454,692.322021 1351.500732,692.322021 1345.405518,692.322021 
	C1345.405518,731.588806 1345.405518,770.540344 1345.405518,810.487793 
M529.882751,736.500000 
	C529.882751,775.611694 529.882751,814.723450 529.882751,854.059204 
	C535.059814,854.059204 539.805420,854.059204 544.737122,854.059204 
	C544.737122,800.054565 544.737122,746.187134 544.737122,692.314270 
	C539.690308,692.314270 534.947632,692.314270 529.882751,692.314270 
	C529.882751,706.894897 529.882751,721.197449 529.882751,736.500000 
M1314.610107,1522.104004 
	C1313.797974,1531.271729 1312.714111,1540.425415 1312.235107,1549.610474 
	C1311.441284,1564.832153 1310.930298,1580.070923 1310.499023,1595.308228 
	C1310.089966,1609.760132 1309.597656,1624.222778 1309.747437,1638.674316 
	C1309.986572,1661.753784 1310.549072,1684.834473 1311.379150,1707.900024 
	C1311.591187,1713.787720 1313.323486,1719.620728 1314.357300,1725.478760 
	C1315.019409,1725.543091 1315.681519,1725.607300 1316.343628,1725.671509 
	C1317.122925,1724.051514 1318.406982,1722.488525 1318.597290,1720.801880 
	C1319.610962,1711.819336 1321.077881,1702.805054 1321.067505,1693.803223 
	C1321.001709,1636.716553 1320.632935,1579.629761 1320.218750,1522.544189 
	C1320.178711,1517.022461 1319.146606,1511.507935 1318.575073,1505.989990 
	C1318.101807,1505.960083 1317.628540,1505.930054 1317.155273,1505.900024 
	C1316.420166,1511.020386 1315.685059,1516.140625 1314.610107,1522.104004 
M1433.675781,772.695801 
	C1435.067139,777.005127 1436.979248,781.222595 1437.759277,785.639893 
	C1441.042114,804.228821 1439.687012,822.955322 1438.630005,841.629761 
	C1438.384521,845.968140 1437.997192,851.027893 1435.681396,854.376953 
	C1429.772339,862.921997 1432.312012,871.376099 1434.245605,879.988464 
	C1434.504761,881.143066 1436.075806,882.665649 1437.156860,882.767151 
	C1438.049561,882.850952 1439.444458,881.260132 1440.055176,880.112366 
	C1447.180420,866.720703 1449.786377,852.038635 1450.057739,837.235229 
	C1450.537842,811.033325 1451.375977,784.754211 1447.705933,758.664185 
	C1447.189087,754.989502 1446.314941,751.014587 1444.333496,748.020935 
	C1443.033081,746.056030 1439.259399,744.485901 1436.944214,744.867432 
	C1435.376953,745.125671 1433.514404,749.024109 1433.360352,751.396729 
	C1432.919067,758.195435 1433.280884,765.046326 1433.675781,772.695801 
M443.894836,779.824341 
	C444.169281,803.095886 444.112061,826.378357 444.879669,849.633667 
	C445.191681,859.086487 446.076447,868.836914 452.328888,876.841492 
	C453.266846,878.042358 454.697327,878.858643 455.900024,879.852783 
	C456.960815,878.502014 458.754852,877.254150 458.961426,875.783386 
	C460.150909,867.313416 462.372681,858.668640 456.501617,850.822754 
	C455.774567,849.851196 455.492310,848.345642 455.468903,847.078918 
	C455.129364,828.702881 454.793030,810.325928 454.665314,791.947632 
	C454.643982,788.880920 454.776978,785.294495 456.285767,782.836304 
	C460.274780,776.337402 460.092316,769.284363 460.123352,762.260315 
	C460.143982,757.581909 459.547272,752.857178 458.723450,748.243042 
	C458.448578,746.703674 456.688263,744.408325 455.471069,744.319458 
	C453.986115,744.211060 451.713776,745.706604 450.920868,747.138916 
	C449.055817,750.507812 447.207184,754.134949 446.548431,757.868652 
	C445.323486,764.811584 444.951721,771.905090 443.894836,779.824341 
M579.083435,1560.498413 
	C578.770996,1551.731812 578.267212,1542.966797 578.189636,1534.198120 
	C578.062927,1519.863281 577.260620,1512.713135 574.737549,1508.717773 
	C574.407104,1509.422119 573.957886,1509.961548 573.916260,1510.530762 
	C573.230652,1519.905029 572.023315,1529.284546 572.044434,1538.660156 
	C572.172058,1595.229858 572.539734,1651.799072 572.972839,1708.367310 
	C573.012878,1713.591431 574.074341,1718.807617 574.661499,1724.027466 
	C576.601807,1722.866455 577.772156,1721.685425 577.967224,1720.360840 
	C578.803528,1714.681152 579.932800,1708.957275 579.915161,1703.252808 
	C579.768921,1656.000610 579.391113,1608.749023 579.083435,1560.498413 
M357.188293,1200.592896 
	C370.259735,1192.278320 383.331177,1183.963623 396.402618,1175.648926 
	C396.061737,1175.143799 395.720856,1174.638672 395.379974,1174.133545 
	C362.882263,1186.054077 334.886719,1204.314941 312.686005,1232.975952 
	C328.038574,1221.839478 342.344482,1211.462280 357.188293,1200.592896 
M509.426331,1168.132446 
	C513.006165,1170.063599 512.462646,1167.174805 511.631287,1165.814331 
	C507.538483,1159.116821 503.283112,1152.466919 495.928375,1149.020508 
	C494.317169,1150.281494 493.031189,1151.287964 491.642212,1152.375122 
	C496.109192,1159.510132 502.249481,1163.873413 509.426331,1168.132446 
M1391.297607,1160.869263 
	C1399.057617,1154.253418 1399.820312,1152.866211 1397.853271,1146.415649 
	C1391.858887,1153.018921 1386.450317,1158.977051 1381.041748,1164.935059 
	C1381.577515,1165.548340 1382.113403,1166.161499 1382.649292,1166.774658 
	C1385.299316,1164.873291 1387.949463,1162.972046 1391.297607,1160.869263 
z"/>

<path fill="currentColor" opacity="1.000000" stroke="none" 
	d="
M1689.710571,779.319336 
	C1696.381226,810.372742 1669.883179,837.200256 1639.207764,831.170044 
	C1622.382446,827.862488 1610.714233,819.113098 1606.150146,802.575012 
	C1599.088989,776.987732 1611.056152,750.027161 1636.809814,745.788513 
	C1658.072266,742.289124 1682.151245,749.708130 1689.710571,779.319336 
z"/>
<path fill="currentColor" opacity="1.000000" stroke="none" 
	d="
M1646.143311,939.289246 
	C1649.423950,951.408569 1638.911865,966.762695 1630.485840,969.696228 
	C1619.165039,973.637695 1604.577515,967.678345 1600.040161,955.683533 
	C1595.037720,942.459778 1598.950684,930.168945 1610.298706,924.356262 
	C1619.407104,919.690796 1632.200195,922.665833 1640.271484,931.487732 
	C1642.372314,933.784058 1644.086060,936.434509 1646.143311,939.289246 
z"/>
<path fill="currentColor" opacity="1.000000" stroke="none" 
	d="
M257.571594,801.727966 
	C255.967026,801.821899 254.083969,802.178650 253.371246,801.426392 
	C246.550995,794.228455 239.902481,786.866577 233.273300,779.490051 
	C232.073929,778.155518 230.595291,776.646301 230.306625,775.028503 
	C229.958664,773.078369 229.996872,770.234497 231.162262,768.977173 
	C237.327774,762.325073 243.892410,756.042175 250.339401,749.652222 
	C251.378281,748.622498 252.521439,747.697998 254.092651,746.301575 
	C262.258362,753.951538 270.310547,761.506653 278.377045,769.046387 
	C281.366699,771.840820 281.189117,774.777588 278.711090,777.713196 
	C274.889526,782.240479 271.011444,786.721130 267.103394,791.174194 
	C264.056885,794.645569 260.928192,798.044861 257.571594,801.727966 
z"/>
<path fill="currentColor" opacity="1.000000" stroke="none" 
	d="
M267.688690,1097.893555 
	C262.692200,1093.316406 257.950134,1088.643188 253.449860,1083.747681 
	C252.819901,1083.062500 252.881805,1080.951782 253.474152,1080.076416 
	C255.492905,1077.092651 257.541718,1073.963135 260.224640,1071.632202 
	C264.732361,1067.715942 268.250824,1068.241455 273.064331,1073.142212 
	C276.297852,1076.434204 279.186493,1080.065063 282.849152,1084.252930 
	C277.933807,1088.718994 272.976868,1093.222900 267.688690,1097.893555 
z"/>
<path fill="currentColor" opacity="1.000000" stroke="none" 
	d="
M1059.548706,1664.000244 
	C1059.548706,1706.124023 1059.548706,1747.747925 1059.548706,1789.625732 
	C1053.966187,1790.111572 1048.617065,1790.815430 1043.250244,1790.997070 
	C1029.989380,1791.446167 1016.721619,1791.731812 1003.454468,1791.948120 
	C963.254028,1792.603149 923.052856,1793.561401 882.851074,1793.609131 
	C868.915527,1793.625732 854.956909,1791.507202 841.048828,1789.996216 
	C834.438293,1789.278076 832.978516,1787.299438 832.870422,1780.703735 
	C832.217651,1740.846558 831.579468,1700.988770 831.057373,1661.129761 
	C830.990417,1656.022461 831.521423,1650.896729 831.966980,1645.796265 
	C832.377991,1641.092285 835.062439,1639.159546 841.983154,1638.783081 
	C850.251343,1638.333252 858.532227,1637.925903 866.809937,1637.875488 
	C928.719116,1637.498291 990.628906,1637.213501 1052.538452,1636.901733 
	C1054.693237,1636.890869 1056.847900,1636.900391 1059.548706,1636.900391 
	C1059.548706,1645.960205 1059.548706,1654.730225 1059.548706,1664.000244 
z"/>
<path fill="currentColor" opacity="1.000000" stroke="none" 
	d="
M1039.000000,1479.046997 
	C1071.328491,1479.046997 1103.156982,1479.046997 1135.513672,1479.046997 
	C1136.230957,1486.420044 1136.937744,1493.685791 1137.677612,1501.291016 
	C1009.185486,1501.291016 881.278625,1501.291016 752.557068,1501.291016 
	C753.034058,1494.964722 753.327820,1488.887939 754.096375,1482.871704 
	C754.235840,1481.780273 756.275269,1480.174805 757.514038,1480.101807 
	C766.612366,1479.564941 775.728088,1479.221436 784.842346,1479.083130 
	C795.173279,1478.926514 805.508728,1479.100220 815.841675,1479.037842 
	C863.949280,1478.747437 912.056335,1478.265381 960.164246,1478.178223 
	C986.275513,1478.130981 1012.388062,1478.736084 1039.000000,1479.046997 
z"/>
<path fill="currentColor" opacity="1.000000" stroke="none" 
	d="
M975.999878,1602.858887 
	C949.346863,1602.871582 923.193237,1602.991699 897.041016,1602.853882 
	C882.941162,1602.779663 868.832947,1602.504517 854.748047,1601.879883 
	C840.585083,1601.251831 826.444153,1600.109253 812.299866,1599.103516 
	C810.533997,1598.978027 808.806702,1598.309814 806.563843,1597.774292 
	C808.307556,1592.567505 813.061768,1591.048462 816.944824,1589.354004 
	C836.709961,1580.729370 857.207703,1574.144531 878.340881,1569.890869 
	C890.835938,1567.375977 903.529663,1565.716187 916.201111,1564.251953 
	C925.703430,1563.154053 935.338318,1562.227417 944.869202,1562.550293 
	C966.055420,1563.268311 987.261536,1564.043213 1008.086304,1568.947998 
	C1031.011597,1574.347534 1053.357544,1581.457153 1075.119873,1590.396118 
	C1078.832764,1591.921265 1082.137573,1594.440308 1085.630859,1596.500000 
	C1085.575073,1596.980591 1085.519409,1597.461182 1085.463745,1597.941772 
	C1082.620117,1598.650513 1079.811890,1599.647339 1076.924683,1600.001953 
	C1072.348389,1600.564331 1067.723511,1600.870361 1063.111816,1600.979980 
	C1046.847656,1601.366333 1030.579590,1601.595459 1014.314209,1601.937866 
	C1001.708618,1602.203369 989.104614,1602.548950 975.999878,1602.858887 
z"/>
<path fill="currentColor" opacity="1.000000" stroke="none" 
	d="
M1118.710815,1454.482178 
	C1104.701172,1449.978027 1101.314819,1439.684814 1102.875977,1426.926758 
	C1104.368164,1414.733643 1112.812988,1407.515503 1124.669189,1406.487183 
	C1138.698364,1405.270142 1147.026611,1413.170410 1152.036377,1424.043213 
	C1157.740845,1436.423462 1144.474365,1457.183228 1128.819214,1455.861450 
	C1125.552856,1455.585693 1122.304565,1455.096436 1118.710815,1454.482178 
z"/>
<path fill="currentColor" opacity="1.000000" stroke="none" 
	d="
M749.792236,1408.529053 
	C759.378967,1405.335449 768.186157,1405.382935 776.519775,1411.396362 
	C784.032104,1416.817383 787.628296,1428.875122 785.581970,1438.385254 
	C783.036560,1450.214966 771.944946,1456.455933 763.458679,1455.787598 
	C758.476318,1455.395386 753.415833,1454.520996 748.667175,1452.999512 
	C742.294861,1450.958008 739.358215,1445.623657 737.852478,1439.381104 
	C735.742310,1430.632935 736.242126,1422.265137 742.071472,1415.019409 
	C744.062805,1412.544312 746.980225,1410.814087 749.792236,1408.529053 
z"/>
<path fill="currentColor" opacity="1.000000" stroke="none" 
	d="
M1159.721924,1706.775879 
	C1143.192261,1706.090088 1135.832642,1696.036743 1133.136719,1682.139893 
	C1132.674194,1679.756470 1133.744751,1676.974609 1134.466187,1674.480591 
	C1137.061890,1665.506226 1150.813232,1656.228149 1159.463013,1657.476562 
	C1172.228638,1659.319092 1181.890869,1669.096069 1182.247925,1680.531738 
	C1182.730103,1695.975952 1177.751831,1701.873413 1159.721924,1706.775879 
z"/>
<path fill="currentColor" opacity="1.000000" stroke="none" 
	d="
M1233.986938,1738.991211 
	C1225.573975,1741.364380 1217.638672,1744.078735 1209.493774,1745.801514 
	C1207.413086,1746.241699 1203.625488,1744.174561 1202.412964,1742.174072 
	C1197.660156,1734.331421 1198.443604,1731.732178 1206.167725,1726.739746 
	C1219.920288,1717.850586 1234.741699,1711.144287 1250.273071,1706.068115 
	C1251.828369,1705.559937 1254.892578,1706.480591 1255.816040,1707.769897 
	C1260.187378,1713.873047 1261.671875,1720.994263 1260.947021,1728.389648 
	C1260.819580,1729.689575 1258.550171,1731.301270 1256.954834,1731.846313 
	C1249.492554,1734.395630 1241.919922,1736.622192 1233.986938,1738.991211 
z"/>
<path fill="currentColor" opacity="1.000000" stroke="none" 
	d="
M662.026733,1740.913330 
	C652.419434,1737.950317 643.275452,1734.800293 633.981140,1732.184082 
	C630.387634,1731.172363 629.223389,1729.103516 630.212769,1726.169922 
	C632.356506,1719.813477 634.853333,1713.557373 637.621277,1707.448608 
	C638.075684,1706.445801 641.063232,1705.520630 642.174500,1706.047485 
	C656.615662,1712.894287 670.977356,1719.914673 685.246704,1727.114014 
	C689.761597,1729.391968 691.976196,1733.126587 690.211914,1738.461792 
	C689.188904,1741.555664 688.423950,1744.734741 687.474731,1748.118408 
	C678.809143,1745.634399 670.619507,1743.286987 662.026733,1740.913330 
z"/>
<path fill="currentColor" opacity="1.000000" stroke="none" 
	d="
M457.988251,1422.993164 
	C449.599518,1414.903809 441.537201,1406.987061 433.277924,1399.281250 
	C412.293945,1379.703369 390.395477,1361.208130 365.501770,1346.758301 
	C355.605408,1341.013916 344.777832,1336.869019 334.351685,1332.044678 
	C330.574341,1330.296753 325.320679,1329.929810 324.736542,1324.745605 
	C324.001526,1318.222046 326.551208,1312.149048 330.997772,1307.593262 
	C334.456726,1304.049316 339.152008,1306.526855 343.125793,1307.812500 
	C360.645477,1313.480957 377.136871,1321.621216 392.041870,1332.196411 
	C408.551636,1343.910400 424.264221,1356.823975 439.704956,1369.943604 
	C451.440735,1379.915161 462.245300,1390.987427 473.377716,1401.660156 
	C475.750427,1403.935059 477.820862,1406.541382 479.907532,1409.095459 
	C486.235016,1416.840454 479.523010,1429.811157 472.218018,1432.886719 
	C471.080566,1433.365479 468.948090,1432.709839 467.858612,1431.844849 
	C464.495941,1429.174683 461.415192,1426.149414 457.988251,1422.993164 
z"/>
<path fill="currentColor" opacity="1.000000" stroke="none" 
	d="
M1471.521973,1337.496582 
	C1483.488281,1328.754517 1494.976562,1319.934326 1506.972412,1311.869019 
	C1518.935913,1303.825439 1532.241699,1298.361450 1546.013306,1294.144409 
	C1553.073242,1291.982544 1555.886108,1293.590942 1558.327026,1300.666504 
	C1562.354492,1312.340210 1562.494141,1312.779053 1551.179443,1317.891846 
	C1532.607422,1326.283936 1515.190674,1336.502563 1499.087402,1348.962769 
	C1480.431030,1363.398560 1463.243408,1379.413574 1447.568359,1397.054199 
	C1443.384399,1401.763062 1439.001953,1406.295532 1434.706055,1410.904785 
	C1433.799072,1411.877930 1432.711792,1412.725342 1431.984253,1413.815308 
	C1429.915161,1416.914185 1429.119019,1420.938965 1423.544067,1420.103027 
	C1417.977051,1419.268188 1413.423584,1417.306641 1410.108887,1412.876221 
	C1406.079102,1407.490234 1405.670288,1404.923096 1410.292725,1399.654785 
	C1421.210083,1387.212524 1432.425049,1375.005371 1444.010498,1363.184204 
	C1452.699951,1354.317871 1462.153320,1346.200317 1471.521973,1337.496582 
z"/>

<path fill="currentColor" opacity="1.000000" stroke="none" 
	d="
M1454.164795,1091.248413 
	C1444.617188,1094.136353 1435.429688,1096.967041 1426.148682,1099.447266 
	C1418.058838,1101.609131 1410.895996,1098.868896 1405.923340,1091.875977 
	C1402.973022,1087.727173 1400.388306,1083.319824 1397.598999,1079.054932 
	C1395.498779,1075.843506 1396.199341,1073.812256 1400.024292,1073.030518 
	C1406.101318,1071.788330 1412.366455,1071.122192 1418.213013,1069.187622 
	C1425.026123,1066.933350 1431.626831,1063.873657 1438.026123,1060.591064 
	C1442.133423,1058.484253 1445.344482,1058.155762 1448.545044,1061.820190 
	C1453.432983,1067.416504 1458.597046,1072.780151 1463.314697,1078.513428 
	C1466.851318,1082.811157 1466.409912,1084.299072 1461.502686,1087.371216 
	C1459.272095,1088.767700 1456.830200,1089.826782 1454.164795,1091.248413 
z"/>
<path fill="currentColor" opacity="1.000000" stroke="none" 
	d="
M484.952026,1071.173340 
	C497.062653,1073.377563 498.765137,1070.262329 491.760925,1082.392822 
	C488.598236,1087.870361 484.347260,1092.914795 479.808411,1097.357178 
	C472.853210,1104.164307 464.585114,1102.042603 456.811035,1098.813599 
	C448.791107,1095.482544 440.950958,1091.692261 433.162445,1087.839355 
	C427.196716,1084.888306 426.692841,1082.869385 430.722900,1077.801392 
	C434.832733,1072.633179 439.502533,1067.911621 443.640686,1062.764282 
	C447.132233,1058.421265 450.810669,1058.829346 455.408936,1060.821899 
	C463.682770,1064.407349 472.162109,1067.523315 480.595612,1070.730225 
	C481.783386,1071.181763 483.196686,1071.040283 484.952026,1071.173340 
z"/>

</svg>